<?xml version="1.0" encoding="utf-8"?>
<!-- Generator: Adobe Illustrator 19.0.0, SVG Export Plug-In . SVG Version: 6.00 Build 0)  -->
<svg version="1.1" id="Layer_1" xmlns="http://www.w3.org/2000/svg" xmlns:xlink="http://www.w3.org/1999/xlink" x="0px" y="0px"
	 viewBox="0 0 126.2 87.2" style="enable-background:new 0 0 126.2 87.2;" xml:space="preserve">
<style type="text/css">
	.st0{fill:#6E9FDE;}
	.st1{fill:#9585D8;}
	.st2{fill:#3BB5B0;}
	.st3{fill:#FFB098;}
	.st4{fill:#FF8DBE;}
	.st5{fill:#FFE67A;}
</style>
<g id="XMLID_277_">
	
		<image style="overflow:visible;opacity:0.23;" width="117" height="58" id="XMLID_316_" xlink:href="F73CE823.png"  transform="matrix(1 0 0 1 6.3333 36.6667)">
	</image>
	<g id="XMLID_306_">
		<g>
			<path id="XMLID_326_" class="st0" d="M11,62.7c-3.1,0-3.1-4.9,0-4.9h9.3c1.5,0,2.7,1.3,2.7,2.8v17.2c0,3.8-5.3,3.8-5.3,0v-15H11z
				"/>
			<path id="XMLID_328_" class="st0" d="M28.2,62.4c-2.9,0.2-3.3-4.4-0.4-4.7l5.1-0.4h0.2c4.3,0,6.8,3.1,6.8,6.2l0,9.7
				c0,0.7,0,1.5,0.2,2.2c2.5,0.6,2.3,4.9-0.6,4.9H27.3c-3.1,0-3.1-4.9,0-4.9h8c-0.4-0.7-0.6-1.3-0.6-2.1l0-9.8
				c0-0.7-0.6-1.2-1.6-1.2L28.2,62.4z"/>
			<path id="XMLID_330_" class="st0" d="M49.1,77.8c0,3.8-5.3,3.8-5.3,0V60.6c0-1.5,1.1-2.7,2.5-2.8l7.3-0.4h0c5.4-0.2,8,3.6,8,6.7
				v13.7c0,3.8-5.3,3.8-5.3,0V64v0c0-0.9-1.1-1.6-2.4-1.6c0,0-0.1,0-0.1,0l-4.8,0V77.8z"/>
			<path id="XMLID_332_" class="st0" d="M63.6,55c0-3.8,5.3-3.8,5.3,0v2.8h8.3c1.5,0,2.7,1.3,2.7,2.8v2.6c0,0.5,0,0.8-0.3,1.2
				l-4.9,9.9c0.5-1,0.4-0.8-0.2,0.5l-0.5,0.9c0.2-0.3,0.3-0.6,0.4-0.8c-0.1,0.3-0.3,0.5-0.4,0.9c-0.3,0.6-0.4,1.2-0.4,2.1
				c0,3.3-4.7,3.3-4.7,0c0-1.8,0.4-3.1,0.9-4.2l4.8-10.3l0.3-0.5h-8.6c-1.5,0-2.7-1.3-2.7-2.8V55z M74.6,74.3l-0.2,0.5
				c0,0,0,0.1,0,0.1C74.5,74.6,74.6,74.4,74.6,74.3z"/>
			<path id="XMLID_335_" class="st0" d="M107,62.7c0,0.2-0.1,0.3-0.2,0.5c-0.4,0.6-0.8,0.8-0.8,2.9v11.7c0,3.7-5.2,3.8-5.3,0l0-11.7
				c0-2.1,1-2.9,1.9-3.3h-8c-3.1,0-3.1-4.9,0-4.9h12.2C109.9,57.8,109.9,62.5,107,62.7z"/>
			<path id="XMLID_337_" class="st0" d="M111.2,60.4c0-3.8,5.3-3.8,5.3,0v7.8c0,3.8-5.3,3.8-5.3,0V60.4z"/>
		</g>
		<g>
			<path id="XMLID_310_" class="st0" d="M11,62.7c-3.1,0-3.1-4.9,0-4.9h9.3c1.5,0,2.7,1.3,2.7,2.8v17.2c0,3.8-5.3,3.8-5.3,0v-15H11z
				"/>
			<path id="XMLID_312_" class="st0" d="M28.2,62.4c-2.9,0.2-3.3-4.4-0.4-4.7l5.1-0.4h0.2c4.3,0,6.8,3.1,6.8,6.2l0,9.7
				c0,0.7,0,1.5,0.2,2.2c2.5,0.6,2.3,4.9-0.6,4.9H27.3c-3.1,0-3.1-4.9,0-4.9h8c-0.4-0.7-0.6-1.3-0.6-2.1l0-9.8
				c0-0.7-0.6-1.2-1.6-1.2L28.2,62.4z"/>
			<path id="XMLID_317_" class="st0" d="M49.1,77.8c0,3.8-5.3,3.8-5.3,0V60.6c0-1.5,1.1-2.7,2.5-2.8l7.3-0.4h0c5.4-0.2,8,3.6,8,6.7
				v13.7c0,3.8-5.3,3.8-5.3,0V64v0c0-0.9-1.1-1.6-2.4-1.6c0,0-0.1,0-0.1,0l-4.8,0V77.8z"/>
			<path id="XMLID_319_" class="st0" d="M63.6,55c0-3.8,5.3-3.8,5.3,0v2.8h8.3c1.5,0,2.7,1.3,2.7,2.8v2.6c0,0.5,0,0.8-0.3,1.2
				l-4.9,9.9c0.5-1,0.4-0.8-0.2,0.5l-0.5,0.9c0.2-0.3,0.3-0.6,0.4-0.8c-0.1,0.3-0.3,0.5-0.4,0.9c-0.3,0.6-0.4,1.2-0.4,2.1
				c0,3.3-4.7,3.3-4.7,0c0-1.8,0.4-3.1,0.9-4.2l4.8-10.3l0.3-0.5h-8.6c-1.5,0-2.7-1.3-2.7-2.8V55z M74.6,74.3l-0.2,0.5
				c0,0,0,0.1,0,0.1C74.5,74.6,74.6,74.4,74.6,74.3z"/>
			<path id="XMLID_322_" class="st0" d="M107,62.7c0,0.2-0.1,0.3-0.2,0.5c-0.4,0.6-0.8,0.8-0.8,2.9v11.7c0,3.7-5.2,3.8-5.3,0l0-11.7
				c0-2.1,1-2.9,1.9-3.3h-8c-3.1,0-3.1-4.9,0-4.9h12.2C109.9,57.8,109.9,62.5,107,62.7z"/>
			<path id="XMLID_324_" class="st0" d="M111.2,60.4c0-3.8,5.3-3.8,5.3,0v7.8c0,3.8-5.3,3.8-5.3,0V60.4z"/>
		</g>
		<g id="XMLID_313_">
			<path id="XMLID_141_" class="st0" d="M11,62.7c-3.1,0-3.1-4.9,0-4.9h9.3c1.5,0,2.7,1.3,2.7,2.8v17.2c0,3.8-5.3,3.8-5.3,0v-15H11z
				"/>
			<path id="XMLID_151_" class="st0" d="M28.2,62.4c-2.9,0.2-3.3-4.4-0.4-4.7l5.1-0.4h0.2c4.3,0,6.8,3.1,6.8,6.2l0,9.7
				c0,0.7,0,1.5,0.2,2.2c2.5,0.6,2.3,4.9-0.6,4.9H27.3c-3.1,0-3.1-4.9,0-4.9h8c-0.4-0.7-0.6-1.3-0.6-2.1l0-9.8
				c0-0.7-0.6-1.2-1.6-1.2L28.2,62.4z"/>
			<path id="XMLID_286_" class="st0" d="M49.1,77.8c0,3.8-5.3,3.8-5.3,0V60.6c0-1.5,1.1-2.7,2.5-2.8l7.3-0.4h0c5.4-0.2,8,3.6,8,6.7
				v13.7c0,3.8-5.3,3.8-5.3,0V64v0c0-0.9-1.1-1.6-2.4-1.6c0,0-0.1,0-0.1,0l-4.8,0V77.8z"/>
			<path id="XMLID_288_" class="st0" d="M63.6,55c0-3.8,5.3-3.8,5.3,0v2.8h8.3c1.5,0,2.7,1.3,2.7,2.8v2.6c0,0.5,0,0.8-0.3,1.2
				l-4.9,9.9c0.5-1,0.4-0.8-0.2,0.5l-0.5,0.9c0.2-0.3,0.3-0.6,0.4-0.8c-0.1,0.3-0.3,0.5-0.4,0.9c-0.3,0.6-0.4,1.2-0.4,2.1
				c0,3.3-4.7,3.3-4.7,0c0-1.8,0.4-3.1,0.9-4.2l4.8-10.3l0.3-0.5h-8.6c-1.5,0-2.7-1.3-2.7-2.8V55z M74.6,74.3l-0.2,0.5
				c0,0,0,0.1,0,0.1C74.5,74.6,74.6,74.4,74.6,74.3z"/>
			<path id="XMLID_303_" class="st0" d="M107,62.7c0,0.2-0.1,0.3-0.2,0.5c-0.4,0.6-0.8,0.8-0.8,2.9v11.7c0,3.7-5.2,3.8-5.3,0l0-11.7
				c0-2.1,1-2.9,1.9-3.3h-8c-3.1,0-3.1-4.9,0-4.9h12.2C109.9,57.8,109.9,62.5,107,62.7z"/>
			<path id="XMLID_307_" class="st0" d="M111.2,60.4c0-3.8,5.3-3.8,5.3,0v7.8c0,3.8-5.3,3.8-5.3,0V60.4z"/>
		</g>
	</g>
</g>
<g id="XMLID_254_">
	
		<image style="overflow:visible;opacity:0.23;" width="32" height="51" id="XMLID_184_" xlink:href="F73CE821.png"  transform="matrix(1 0 0 1 90.3333 4.1667)">
	</image>
	<g id="XMLID_152_">
		<g id="XMLID_174_">
			<path id="XMLID_175_" class="st1" d="M117.1,28.9c-0.1,0-0.3,0-0.4-0.1c-0.1,0-0.2-0.1-0.3-0.2c-0.1-0.1-0.3-0.2-0.4-0.4
				c-0.3-0.1-0.5-0.4-0.8-0.5c-0.1-0.1-0.3-0.1-0.4-0.3c-0.1-0.1-0.3-0.2-0.4-0.3c-0.4-0.6-0.6-1.4-0.9-2.1
				c-0.1-0.4-0.3-0.8-0.5-1.1c0-0.1-0.1-0.1-0.1-0.2c-0.1-0.1-0.1-0.2-0.2-0.3c-0.1-0.1-0.3-0.3-0.4-0.5c-0.1-0.1-0.1-0.3-0.2-0.4
				c-0.2-0.4-0.3-0.8-0.5-1.3c0.1,0,0.2-0.1,0.2-0.2c0-0.7-0.2-1.3-0.3-1.9c-0.1-0.3-0.1-0.6-0.2-0.9c-0.1-0.3-0.2-0.6-0.3-0.9
				c-0.1-0.1-0.2-0.3-0.2-0.4c-0.1-0.1-0.2-0.2-0.3-0.4c-0.1,0-0.2-0.1-0.2-0.2c-0.1,0-0.2-0.1-0.2-0.2c-0.2-0.1-0.4-0.2-0.5-0.3
				c-0.2-0.1-0.4-0.2-0.5-0.3c-0.1,0-0.3-0.1-0.3-0.1c0,0,0,0-0.1,0c-0.1,0-0.1-0.1-0.2-0.1c-0.1-0.1-0.3-0.2-0.4-0.3
				c-0.1,0-0.1,0-0.2-0.1c0-0.1-0.1-0.1-0.1-0.2c0-0.1-0.1-0.1-0.1-0.2c-0.1-0.1-0.2-0.2-0.3-0.3c-0.2-0.2-0.4-0.5-0.6-0.7
				c0,0,0-0.1-0.1-0.1c0,0,0,0,0,0c0,0,0,0,0,0c0,0,0-0.1,0-0.1c0.2,0,0.3,0,0.5-0.1c-0.2,0.1-0.4,0-0.5,0c0-0.1-0.1-0.2-0.1-0.3
				c0,0,0.1,0,0.1,0c0,0-0.1,0-0.1,0c0-0.1,0-0.2,0-0.3c0,0,0.1,0,0.1,0c0.1,0,0.1,0,0.2-0.1c-0.1,0-0.1,0-0.2,0
				c-0.1,0-0.1,0-0.1-0.1c0,0,0-0.1,0-0.1c0-0.1,0-0.1,0-0.2c0,0,0-0.1,0-0.1c0,0,0,0,0,0c0-0.1,0-0.1,0.1-0.2
				c0.1,0,0.2-0.1,0.2-0.1c0,0,0,0,0-0.1c0,0,0,0,0,0c0.1,0.1,0.3,0.1,0.4,0c-0.2,0-0.3-0.1-0.4-0.2c0.1-0.2,0.1-0.5,0.1-0.7
				c0-0.3,0-0.6-0.1-0.7c0,0,0,0,0,0c0,0,0-0.1,0-0.1c0.1,0,0.1,0.3,0.2,0.3c0,0,0-0.4-0.1-0.5c0-0.2-0.1-0.4-0.2-0.5
				c0-0.1-0.1-0.2-0.2-0.3c0,0,0,0,0-0.1c0.2,0.1,0.3,0.2,0.5,0.2c-0.3-0.1-0.4-0.3-0.6-0.5c0.1,0.1,0.2,0.2,0.3,0.2
				c0,0-0.1-0.1-0.1-0.2c0,0,0.1,0.1,0.1,0.1c0.1,0,0.1,0.1,0.2,0.1c0.1,0,0.1,0,0.2,0c-0.1,0-0.2,0-0.3-0.1
				c-0.1-0.1-0.2-0.2-0.3-0.3c0,0,0,0-0.1-0.1c0,0,0,0,0.1,0c0,0,0,0,0.1,0c0.1,0,0.1,0,0.2,0c0,0,0,0,0,0c0,0,0,0,0.1,0
				c0,0,0.1,0,0.1,0c0.1,0,0.1,0,0.1,0c0,0-0.1,0-0.1,0c0,0-0.1,0-0.1-0.1c0,0-0.1,0-0.1-0.1c-0.1,0-0.1,0-0.2,0c0,0,0,0-0.1,0
				l-0.1,0c0,0-0.1,0-0.1,0c-0.1,0-0.2,0-0.2,0c0,0,0,0,0,0c0.1,0,0.3-0.1,0.4-0.1c-0.1,0-0.1,0-0.2,0c0,0-0.2-0.2-0.2-0.2
				c-0.1,0-0.2-0.2-0.3-0.1c0,0,0,0,0,0c0.1,0,0.2-0.1,0.3-0.1c-0.1,0.1-0.3,0-0.4,0c-0.1,0-0.3,0-0.4,0c0,0,0,0,0,0
				c-0.1,0,0-0.1,0-0.1c0,0-0.1,0-0.1,0c0.1-0.1,0.2-0.1,0.2-0.2c-0.1,0.1-0.2,0.1-0.3,0.2c0,0,0,0-0.1,0c0,0-0.1,0-0.1,0
				c0.1-0.1,0.1-0.3,0.1-0.4c-0.1,0.1-0.1,0.3-0.2,0.4c0,0,0,0-0.1,0c0,0,0,0,0,0c0,0,0,0,0,0c-0.1-0.1-0.4,0.1-0.4,0.2
				c0,0,0-0.1,0.1-0.1c0,0-0.1,0,0-0.1c0,0,0,0,0,0c0-0.1,0.1-0.1,0.1-0.2c-0.1,0.1-0.2,0.2-0.2,0.3c0,0,0,0,0,0c0,0,0,0,0,0
				c0,0,0,0,0,0c0,0,0-0.1,0-0.1c0,0,0,0,0,0c0,0,0,0,0,0c0-0.1,0.1-0.1,0.1-0.2c-0.1,0.1-0.2,0.2-0.3,0.3c0,0,0,0,0,0
				c-0.1,0-0.1,0-0.2,0h0c0,0,0,0,0,0c0,0,0,0,0,0c0,0,0,0,0,0c0-0.1-0.1-0.3-0.1-0.4c0,0,0,0,0,0c0,0,0,0,0,0c0-0.1,0-0.1,0-0.2
				c0,0.2,0,0.4,0,0.5c0,0,0,0,0,0c0-0.1-0.1-0.2-0.1-0.3c0-0.1,0-0.2,0-0.3c-0.1,0-0.1,0.1-0.1,0.2c0-0.1,0-0.2,0-0.3
				c-0.1,0.2-0.1,0.5-0.1,0.8c0,0,0,0.1,0,0.1c0,0-0.1,0-0.1,0c0,0,0,0,0,0c0,0,0-0.1-0.1-0.1c-0.1-0.2-0.3-0.3-0.5-0.4
				c0.1,0.1,0.2,0.1,0.2,0.2c0,0,0,0,0,0c0,0,0,0.1,0.1,0.1c0,0,0,0.1,0,0.1c0.1,0.1,0,0.1,0,0.1c0,0,0,0,0,0
				c-0.1-0.1-0.2-0.1-0.3-0.1c0,0,0.1,0,0.1,0.1c0,0,0,0,0,0c0,0,0.1,0,0.1,0c0,0,0,0,0,0c0,0,0,0,0,0c0,0,0,0,0,0l0,0c0,0,0,0,0,0
				c0,0,0,0,0,0l0,0c0,0-0.1,0-0.1,0c0,0-0.1,0-0.1,0c-0.1,0-0.2,0-0.2,0c-0.1,0-0.2,0-0.3-0.1c0.1,0.1,0.2,0.1,0.3,0.1c0,0,0,0,0,0
				c0,0,0,0,0,0c-0.1,0-0.2,0-0.2,0c0,0-0.1,0-0.1,0c0,0-0.1,0-0.1,0c0,0,0,0,0,0c-0.1,0-0.2,0.1-0.3,0.1c0.1,0,0.2,0,0.3,0
				c0.1,0,0.2,0,0.1,0.1c0.1,0,0.1,0.1,0.1,0.2c0,0,0,0,0,0c0,0,0,0,0,0c0,0,0,0,0,0c0,0-0.1,0.1-0.1,0.1c-0.1,0-0.1,0.1-0.2,0.1
				c0.1,0,0.1,0,0.2,0c0,0,0,0,0,0.1c0,0,0,0.1,0,0.1c0,0-0.1,0-0.1,0.1c-0.1,0-0.1,0-0.1,0.1c-0.1,0.1-0.1,0.1-0.2,0.2
				c-0.1,0.1-0.3,0.2-0.4,0.4c0.1-0.1,0.2-0.2,0.3-0.2c0,0,0,0,0,0c0,0,0,0,0.1,0c0,0,0,0,0,0l0,0c0,0,0,0,0,0c0,0-0.1,0-0.1,0.1
				c0,0-0.1,0.1-0.1,0.1c0,0,0.1-0.1,0.1-0.1c0,0,0,0,0.1,0c0,0,0,0.1,0,0.1c0,0.1-0.1,0.2-0.1,0.2c0,0,0.1-0.1,0.1-0.1
				c0,0,0,0.1,0,0.1c0,0,0,0.1,0,0.1c-0.1,0.1,0,0.1,0,0.2c0,0,0,0,0,0.1c0,0,0,0,0,0c0,0,0,0.1-0.1,0.1c0,0-0.1,0-0.1,0
				c0,0-0.1,0-0.1-0.1c0,0,0,0.1,0.1,0.1c0,0,0.1,0,0.1,0c0,0,0,0,0,0c0,0,0,0,0,0c0,0.2,0,0.4,0,0.6c0,0.1,0,0.3,0,0.4
				c0,0,0,0.1,0,0.1c0,0-0.1,0.1-0.1,0.1c0,0-0.1,0-0.2,0c0.1,0,0.1,0,0.2,0c0.1,0,0.1-0.1,0.1-0.1c0,0,0,0.1,0,0.1c0,0,0-0.1,0-0.1
				c0,0,0,0,0,0c0,0.1,0.1,0.2,0.1,0.3c0,0.1,0,0.1,0,0.2c0,0.1,0,0.1-0.1,0.1c0.1,0,0.1,0,0.1-0.1c0,0,0,0.1,0,0.1c0,0,0,0,0-0.1
				c0,0,0,0,0,0c0,0,0,0,0,0c0,0,0-0.1,0-0.1c0,0,0,0,0,0c0,0.1,0,0.2,0,0.3c0,0.2,0,0.4-0.1,0.5c0.1-0.1,0.2-0.2,0.2-0.4
				c0,0.2,0.1,0.4,0.2,0.5c0,0.1,0.4,0.6,0.4,0.6c0.1,0,0.2,0.1,0.3,0.1c0.1,0.1,0.1,0.2,0.2,0.2c0.3,0.3,0.6,0.6,1,0.8
				c0.1,0.2,0.2,0.4,0.2,0.6c-0.2,0-0.3,0-0.5,0c-0.1,0.1-0.2,0.2-0.3,0.3c-0.4,0.2-0.9,0.3-1.3,0.5c-0.4,0.2-0.8,0.4-1.1,0.6
				c-0.1,0.1-0.2,0.3-0.3,0.4c0,0.2-0.2,0.3-0.2,0.4c-0.1,0.2-0.1,0.3-0.2,0.5c-0.1,0.3-0.2,0.7-0.3,1.1c-0.1,0.4-0.2,0.7-0.3,1.1
				c-0.1,0.4-0.2,0.7-0.3,1.1c0,0.1,0.2,0.1,0.3,0.2c-0.1,0.3-0.2,0.6-0.4,0.8c-0.1,0.3-0.3,0.5-0.4,0.8c-0.3,0.2-0.6,0.5-0.8,0.8
				c-0.2,0.3-0.5,0.6-0.7,1c-0.4,0.7-0.8,1.4-1.4,1.9c0,0,0,0,0,0c-0.6,0.3-1.2,0.6-1.8,0.9c-0.2,0.2-0.4,0.3-0.7,0.4
				c-0.2,0-0.5,0-0.6,0.1c0,0.3,0.2,0.3,0.3,0.4c0.2,0,0.3,0,0.5-0.1c0.1-0.1,0.2-0.1,0.3-0.1c0.1,0,0.3-0.1,0.4,0
				c0,0.1-0.1,0.2-0.1,0.3c-0.1,0.1-0.1,0.2-0.1,0.3c-0.1,0.2-0.2,0.4-0.3,0.6c-0.1,0.3-0.3,0.5-0.4,0.9c-0.1,0.1,0,0.3,0,0.3
				c0,0,0,0,0,0c0.2,0.1,0.4-0.1,0.5-0.3c0.1-0.1,0.3-0.3,0.4-0.4c0.1-0.1,0.2-0.2,0.3-0.3c0-0.1,0.1-0.1,0.1-0.2
				c0.1,0,0.1-0.1,0.2-0.1c0.1,0.1,0,0.1-0.1,0.2c-0.1,0.1-0.2,0.2-0.2,0.3c0,0,0,0,0,0.1c0,0,0,0-0.1,0c0,0,0,0.1-0.1,0.1
				c-0.1,0.1-0.2,0.2-0.3,0.3c-0.1,0.1-0.2,0.2-0.2,0.4c0.1,0.1,0.3,0.1,0.4,0c0-0.1,0.1-0.1,0.1-0.1c0.1,0,0.1-0.1,0.1-0.2
				c-0.1,0.1,0,0.2,0.1,0.3c0.2,0,0.3-0.2,0.5-0.3c0.1-0.1,0.3-0.3,0.4-0.4c0-0.1,0.1-0.2,0.2-0.2c0-0.1,0.2-0.1,0.2-0.2
				c0.1-0.1,0.2-0.3,0.4-0.5c0.1-0.2,0.2-0.4,0.3-0.6c0.1-0.2,0.1-0.5,0.2-0.7c0-0.1,0.1-0.1,0.1-0.1c0,0,0.1-0.1,0.1-0.1
				c0.2-0.2,0.4-0.5,0.7-0.7c0.1-0.2,0.3-0.3,0.4-0.5c0.2-0.1,0.3-0.3,0.5-0.5c0.3-0.3,0.6-0.6,0.9-1c0.1-0.2,0.3-0.4,0.4-0.5
				c0.2-0.2,0.3-0.4,0.4-0.5c0.1-0.2,0.2-0.3,0.2-0.5c0.1-0.4,0.2-0.7,0.4-1c0.1-0.1,0.1-0.2,0.1-0.2c0-0.1,0.1-0.1,0.1-0.1
				c0,0,0-0.1,0.1-0.1c0.1,0,0.2,0.1,0.2,0.2c0,1.4-0.1,2.9-0.4,4.1c0,0.2-0.1,0.5-0.1,0.7c0,0.3-0.1,0.4-0.2,0.6
				c0,0.1,0.2,0.1,0.3,0.2c-0.1,0.3-0.2,0.6-0.2,0.9c-0.3,1.1-0.2,2.3-0.2,3.6c0,0.3,0,0.6,0,0.9c0,0.6,0.1,1.2,0.2,1.8
				c0,0.3,0,0.6,0,0.9c0,0.3,0.1,0.7,0.2,1c0,0.2,0,0.3,0,0.5c0,0.6,0,1.2,0,1.9c0,0.6,0.1,1.3,0.1,1.9c0,1.3,0,2.5-0.4,3.4
				c0,0.1,0,0.3,0,0.4c0.1,0.4,0.2,0.9,0.2,1.3c0,0.2-0.1,0.3-0.1,0.5c-0.1,0.1-0.1,0.3-0.2,0.4c-0.1,0,0,0.2-0.1,0.2
				c0,0.1-0.1,0.1-0.1,0.2c0,0.3,0.1,0.6,0.2,0.8c0.6,0,1.1-0.1,1.7-0.2c0,0.1-0.1,0.1-0.2,0.1c0,0.1-0.1,0.2-0.1,0.2
				c0,0.2-0.1,0.3-0.2,0.5c-0.1,0.1-0.1,0.3-0.2,0.4c-0.1,0.1-0.2,0.2-0.3,0.3c-0.2,0.3-0.5,0.4-0.5,0.7c0,0.2,0,0.2,0.1,0.4
				c0.1,0.1,0.2,0.2,0.2,0.3c0.2,0.1,0.4,0.2,0.8,0.2c0.4,0,0.8,0,1.1-0.2c0.3-0.1,0.7-0.3,0.8-0.5c0.1-0.1,0.1-0.2,0.1-0.3
				c0-0.1,0-0.3,0-0.4c0.1-0.2,0.2-0.4,0.3-0.5c0-0.4,0-0.9-0.1-1.3c0-0.1,0-0.1-0.1-0.1c0-0.1-0.1-0.1,0-0.1c0.3,0,0.5-0.1,0.8-0.1
				c0.1-0.2,0-0.6,0-0.9c0.1-0.7,0.1-1.3,0.1-2c0-0.1,0-0.2,0-0.3c-0.2-0.6-0.3-1.4-0.3-2.2c0.1-0.6,0-1.2,0-1.8
				c0-0.6,0.1-1.1,0.2-1.7c-0.2-1-0.1-2-0.1-3.1c0-0.5-0.1-1-0.1-1.5c0-0.5,0.1-1,0.1-1.5c0-0.1,0-0.2,0-0.3c0.1-0.1,0-0.2,0.1-0.3
				c0.1,0.1,0,0.3,0.1,0.4c0,0.4,0.1,0.8,0.1,1.3c0.1,0.6,0,1.2,0,1.8c0.1,0.8,0.2,1.8,0.2,2.7c0,0.3,0.1,0.6,0.2,0.8
				c0.1,0.2,0.2,0.4,0.2,0.6c0.2,0.3,0.4,0.7,0.6,0.9c0.1,0.2,0.2,0.3,0.3,0.5c0.1,0.2,0.3,0.5,0.5,0.7c0.2,0.2,0.3,0.5,0.5,0.7
				c0.2,0.3,0.4,0.6,0.6,0.9c0.1,0.4,0.2,0.9,0.3,1.3c0.2,0.3,0.3,0.6,0.5,0.8c0.2,0.3,0.4,0.5,0.5,0.8c0.1,0.4,0.3,0.8,0.4,1.2
				c0.1,0.1,0.2,0.2,0.3,0.3c0.2,0,0.4,0.1,0.6,0.1c-0.1,0,0,0.1,0,0.2c0,0.3,0,0.5,0.1,0.7c0,0.2,0,0.5,0,0.7c0,0.1,0,0.2,0.1,0.3
				c0,0.1-0.1,0.2-0.2,0.4c0,0.2-0.2,0.2-0.2,0.4c0.1,0.2,0.2,0.3,0.4,0.3c0.5-0.1,0.9-0.3,1.3-0.6c0.4-0.2,0.8-0.4,1.2-0.7
				c0.1-0.2,0.1-0.4,0.1-0.6c0-0.2,0-0.5,0-0.7c0-0.2-0.1-0.3-0.1-0.5c0-0.2,0-0.5,0-0.7c0.1-0.1,0.2-0.2,0.3-0.4
				c0.2-0.3,0.4-0.5,0.3-1c-0.2-0.4-0.4-0.7-0.8-0.9c-0.2-0.2-0.3-0.4-0.4-0.7c-0.1-0.2-0.1-0.4-0.1-0.6c-0.1-0.2-0.3-0.3-0.4-0.6
				c-0.1-0.2-0.2-0.4-0.3-0.6c-0.1-0.2-0.2-0.4-0.3-0.6c-0.1-0.1-0.1-0.2-0.2-0.3c-0.1-0.1-0.1-0.2-0.2-0.3
				c-0.2-0.4-0.5-0.8-0.8-1.2c-0.1-0.2-0.3-0.4-0.4-0.6c-0.1-0.2-0.2-0.4-0.3-0.6c-0.1-0.1-0.2-0.2-0.3-0.3
				c-0.1-0.2-0.3-0.3-0.4-0.6c0,0,0-0.1,0-0.1c0-0.3,0-0.7,0.1-1c-0.1-0.5,0-1.1-0.1-1.7c0.1-0.6,0.1-1.3,0.2-1.8
				c0.2,0,0.3,0.2,0.5,0.1c0.2-0.2,0.1-0.6,0.1-0.9c0-0.1-0.1-0.2-0.1-0.2c-0.1-0.1-0.3-0.2-0.4-0.2c-0.1-1.3-0.3-2.6-0.3-4
				c0-0.1,0.2-0.1,0.2-0.2c0-0.1,0-0.2-0.1-0.3c0-1,0-2,0-3c0-0.8,0.1-1.6,0.3-2.4c0-0.1,0-0.2,0.1-0.3c0,0.1,0.1,0.2,0.1,0.3
				c0.1,0.1,0,0.2,0.1,0.2c0.2,0,0.5-0.1,0.7-0.1c0.2,0.4,0.3,0.9,0.5,1.4c0.1,0.5,0.4,0.9,0.6,1.3c0.1,0.2,0.2,0.3,0.2,0.5
				c0.1,0.1,0.1,0.3,0.3,0.5c0.1,0.2,0.2,0.3,0.3,0.4c0.3,0.4,0.6,0.8,0.9,1.3c0.1,0.2,0.2,0.3,0.3,0.5c0.1,0.2,0.1,0.3,0.2,0.5
				c0,0.2,0.1,0.4,0.1,0.7c0.1,0.2,0.2,0.5,0.3,0.7c0.1,0.1,0.2,0.3,0.3,0.5c0.1,0.2,0.2,0.3,0.3,0.5c0.1,0.1,0.2,0.3,0.3,0.5
				c0.1,0.1,0.2,0.4,0.5,0.4c0.1-0.1,0.1-0.2,0-0.3c0-0.1-0.1-0.2-0.2-0.3c-0.1-0.3-0.2-0.4-0.3-0.7c0,0,0,0,0,0c0,0,0,0,0,0
				c0,0,0,0,0,0c0.2,0.3,0.3,0.6,0.5,0.9c0.1,0.1,0.1,0.3,0.3,0.4c0,0.2,0.2,0.3,0.4,0.2c0.1-0.2,0-0.3-0.1-0.4
				c-0.1-0.2-0.2-0.4-0.3-0.6c-0.1-0.1-0.1-0.2-0.2-0.3c-0.1-0.1-0.1-0.2-0.1-0.3c0.1,0,0.1,0.1,0.2,0.2c0,0.1,0.1,0.1,0.1,0.2
				c0.1,0.2,0.2,0.3,0.3,0.4c0.1,0.1,0.2,0.3,0.3,0.4c0.1,0.1,0.2,0.3,0.4,0.3c0.1,0,0.2-0.2,0.2-0.3c0-0.1-0.1-0.3-0.1-0.4
				c-0.1-0.1-0.1-0.3-0.2-0.4c0-0.2-0.1-0.3-0.2-0.5c-0.1-0.3-0.2-0.6-0.3-0.9c0.2,0.1,0.4,0.2,0.7,0.2c0.3,0,0.6,0,0.6-0.3
				C117.3,29,117.2,29,117.1,28.9z M106,8c0.1,0,0.2,0.1,0.3,0.1c-0.1,0-0.1,0-0.2,0c-0.1,0-0.3,0-0.4-0.1l0,0
				C105.8,8.1,106,8.1,106,8z M105,7.5C105,7.5,105,7.5,105,7.5C105,7.5,105,7.5,105,7.5C105,7.5,105,7.5,105,7.5z"/>
		</g>
	</g>
</g>
<g id="XMLID_50_">
	
		<image style="overflow:visible;opacity:0.23;" width="34" height="52" id="XMLID_1451_" xlink:href="F73CE827.png"  transform="matrix(1 0 0 1 66.3333 3.1667)">
	</image>
	<g id="XMLID_935_">
		<g id="XMLID_1279_">
			<path id="XMLID_1281_" class="st2" d="M95.8,29.6c0-0.3-0.2-0.5-0.3-0.7c0-0.1,0-0.3,0-0.4c0-0.1-0.2-0.1-0.3-0.3
				c-0.1,0-0.2-0.2-0.3-0.2c-0.2-0.2-0.4-0.3-0.6-0.4c-0.1-0.2-0.2-0.3-0.3-0.5c-0.1,0-0.2-0.1-0.3-0.2c-0.5-0.5-0.9-1-1.3-1.5
				c-0.2-0.2-0.4-0.5-0.6-0.8c-0.2-0.3-0.4-0.6-0.6-0.8c0-0.1-0.1-0.1-0.1-0.2c0,0,0,0,0-0.1c0,0-0.1-0.1-0.1-0.1c0,0,0-0.1,0-0.1
				c0,0,0,0,0,0c0,0,0,0,0-0.1c0,0-0.1-0.1-0.1-0.1c0,0,0,0,0-0.1c0,0-0.1-0.1-0.1-0.2c-0.2-0.3-0.4-0.6-0.5-0.9
				c-0.3-0.6-0.6-1.3-0.9-1.9c0.1-0.1,0.2-0.1,0.3-0.2c-0.2-0.4-0.3-0.8-0.5-1.1c0-0.1-0.1-0.2-0.1-0.3c-0.1-0.3-0.2-0.7-0.3-1
				c-0.1-0.3-0.3-0.6-0.5-0.9c0-0.2,0-0.2,0-0.4c-0.1-0.2-0.2-0.4-0.3-0.5c0-0.1-0.1-0.2-0.1-0.3c-0.1-0.1-0.1-0.1-0.2-0.2
				c0-0.1-0.1-0.3-0.1-0.3c0-0.1-0.1-0.1-0.2-0.2c-0.1,0-0.1-0.1-0.2-0.1c0-0.1-0.1-0.2-0.2-0.3c-0.1,0-0.1-0.1-0.1-0.1
				c-0.1-0.1-0.3-0.2-0.5-0.3c-0.2-0.1-0.3-0.2-0.4-0.3c0,0,0,0,0,0c0,0,0.1,0,0.1,0c0,0.1,0.1,0.1,0.1,0.1c0,0-0.1-0.1-0.1-0.1
				c0.1,0,0.2,0,0.2,0c0.1,0,0.2-0.1,0.2-0.1c-0.1,0.1-0.3,0.1-0.4,0.1c0,0,0,0,0,0c0-0.1,0-0.1,0-0.2c0-0.1,0-0.1,0.1-0.2
				c0.1,0,0.2,0,0.3,0c0.1,0,0.1-0.1,0.2-0.1c0,0,0.1-0.1,0.1-0.2c0-0.1,0-0.1-0.1-0.1c0,0-0.1,0-0.1,0c0,0,0,0.1,0,0.1
				c0,0,0-0.1,0-0.1c0,0,0,0,0.1,0c0,0,0.1,0.1,0.1,0.1c0,0,0,0.1-0.1,0.1c0,0-0.1,0-0.1,0.1c-0.1,0-0.1,0-0.2-0.1c0,0,0,0,0,0
				c0.1,0,0.1,0,0.2-0.1c0,0,0.1-0.1,0.1-0.1c0,0,0,0,0,0l0,0l0,0l0,0l0,0c0-0.1,0,0,0,0l0,0l0,0c0,0-0.1,0-0.1,0
				c-0.1,0-0.1,0.1-0.1,0.1c0,0,0.1-0.1,0.1-0.1c0,0,0,0,0,0l0,0l0,0c0,0.1-0.1,0.1-0.2,0.1c0-0.1,0-0.2,0-0.2
				c0-0.1-0.1-0.1-0.1-0.2c0.1,0,0.1-0.1,0.1-0.2c0,0,0,0.1-0.1,0.1c0,0,0-0.1,0-0.1c0,0,0-0.1,0-0.1c0,0,0,0,0,0c0,0,0,0,0,0
				c0,0,0,0-0.1,0c0,0-0.1,0-0.1,0c0,0,0,0-0.1-0.1c0,0,0,0,0,0c0,0,0.1,0,0.1,0c0.1,0,0.1-0.1,0.2-0.1c0,0,0.1-0.1,0.1-0.1
				c0,0,0-0.1,0-0.1c0,0,0-0.1-0.1-0.1c-0.1,0-0.1,0-0.2,0c0,0,0,0,0,0.1c0,0,0,0,0,0.1c0,0,0,0,0-0.1c0,0,0,0,0,0c0,0,0.1,0,0.1,0
				c0.1,0,0,0.1-0.1,0.2c-0.1,0.1-0.1,0.1-0.2,0c0,0,0-0.1,0-0.1c0,0,0-0.1,0-0.2c0.1,0,0.3-0.2,0.3-0.3c-0.1,0.1-0.2,0.2-0.4,0.2
				c0,0,0-0.1,0-0.1c-0.1-0.1-0.1-0.2-0.2-0.2c0,0,0,0,0-0.1c0,0,0,0,0,0c0,0,0,0,0,0c0,0,0.1,0,0.1,0c0.1,0,0.1-0.1,0.1-0.2
				c0,0.1-0.1,0.1-0.1,0.1c0,0-0.1,0-0.1,0c0.1,0,0.1-0.1,0.1-0.1c0-0.1,0.1-0.2,0.1-0.3c0,0.1-0.1,0.2-0.1,0.2c0,0-0.1,0.1-0.1,0.1
				c0,0,0,0,0.1-0.1c0,0,0.1-0.1,0.1-0.2c0-0.1,0-0.1,0-0.2c0-0.1,0-0.1-0.1-0.2c0,0,0.1,0,0.1-0.1c0,0,0.1-0.1,0.1-0.1
				c0,0,0-0.1,0-0.1c0,0-0.1,0-0.1-0.1c-0.1,0-0.1,0-0.2,0c0,0,0-0.1,0-0.1c0,0-0.1-0.1-0.1-0.1c0,0-0.1,0-0.1,0c0,0,0,0,0,0
				c0,0,0-0.1,0-0.1c0.1,0,0.2,0,0.3,0c-0.1,0-0.2,0-0.3,0c0-0.1,0-0.3-0.1-0.4c0-0.1-0.1-0.2-0.1-0.3c0,0,0,0,0,0
				c0,0,0.1-0.1,0.1-0.1c0,0-0.1,0.1-0.1,0.1c0-0.1-0.1-0.1-0.2-0.2c0,0,0,0,0,0c0,0,0,0,0,0c0,0,0,0,0.1-0.1c0,0,0.1,0,0.1,0
				c0,0,0,0.1,0,0.1c0,0,0,0.1,0,0.1c0.1,0.1,0.2,0.1,0.3,0.1c0.1,0,0.2,0,0.3-0.1c-0.1,0-0.2,0-0.3,0c-0.1,0-0.1-0.1-0.2-0.1
				c0,0,0,0,0,0c0,0,0.1,0,0.1,0c0,0-0.1,0-0.1,0c0,0,0,0,0-0.1c0,0,0-0.1,0-0.1c0.1-0.1,0.2-0.2,0.2-0.3c-0.1,0.1-0.1,0.1-0.2,0.2
				c0,0,0,0,0-0.1c0,0,0-0.1,0-0.1l0,0l0,0c0,0,0,0,0,0l0,0l0,0c0,0,0,0,0,0c0,0-0.1-0.1-0.1-0.1c0,0,0-0.1,0-0.1
				c0-0.1,0-0.1-0.1-0.1c0,0-0.1,0-0.1,0c-0.1,0-0.1,0-0.2,0c0,0-0.1,0-0.1,0c0,0,0,0,0,0c0,0,0,0,0-0.1c0,0,0,0,0-0.1c0,0,0,0,0,0
				c0,0,0,0,0.1,0c0,0,0.1,0,0.1,0c0,0,0.1,0.1,0.1,0.1c0,0,0.1,0.1,0.2,0c0.1,0,0.1-0.1,0.1-0.1c-0.1,0-0.2,0.1-0.3,0
				c-0.1-0.1-0.2-0.2-0.3-0.2c0-0.1,0-0.1,0.1-0.2c0-0.1,0-0.3-0.1-0.4c-0.1-0.1-0.1-0.1-0.2-0.1c-0.1,0-0.2,0-0.2,0
				c0,0-0.1,0-0.1,0c0,0,0,0,0,0c0,0-0.1-0.1-0.1-0.1c0,0,0.1,0.1,0.1,0.1c0,0,0,0,0-0.1c0,0,0.1,0,0.1,0c0,0,0.1,0,0.1-0.1
				c-0.1,0-0.1,0.1-0.2,0c0,0-0.1-0.1-0.1-0.2c0,0,0-0.1-0.1-0.1c0,0-0.1,0-0.1,0c-0.1,0-0.1,0.1-0.2,0.1c0,0,0,0,0,0
				c-0.1,0-0.2,0-0.2,0c0,0-0.1-0.1-0.1-0.1c0,0,0,0,0,0c0,0,0.1,0,0.1,0c0,0,0,0,0,0c0,0,0.1,0,0.1-0.1c0,0,0,0,0,0
				c0.1-0.1,0.2-0.2,0.2-0.3c-0.1,0.2-0.3,0.3-0.4,0.3c0,0,0,0,0,0c-0.1-0.1-0.1-0.1-0.1-0.2c0,0,0,0,0,0c0.1,0,0.2-0.2,0.2-0.3
				c-0.1,0.1-0.2,0.2-0.3,0.2c0,0,0,0-0.1,0c0,0,0-0.1-0.1-0.1c0,0-0.1-0.1-0.2-0.1c-0.1,0-0.2,0-0.3,0.1c-0.1,0-0.1,0-0.2,0
				c0,0-0.1,0-0.1,0c-0.1,0-0.1,0-0.2,0c0,0,0,0,0,0c0,0-0.1,0-0.1,0c0,0-0.1,0-0.1,0c0-0.1-0.1-0.1-0.2-0.1c-0.1,0-0.2,0-0.3,0.1
				c0,0-0.1,0.1-0.1,0.1c0,0,0,0,0,0c0,0,0,0-0.1,0c0,0-0.1,0-0.1,0c-0.1,0-0.3,0.1-0.4,0.1c-0.1,0.1-0.2,0.2-0.2,0.3
				c0,0,0,0.1-0.1,0.1c0,0,0,0,0,0c0,0,0,0,0,0c0,0,0,0,0,0c0,0,0,0,0,0c0,0,0,0-0.1,0c-0.1,0-0.2,0-0.3,0c0,0-0.1,0-0.1,0
				c0,0,0,0,0,0c0,0,0,0,0,0c0,0,0,0,0,0c0,0,0,0,0,0c-0.1,0-0.1,0.2-0.2,0.3c0,0-0.1,0.1-0.1,0.1c-0.1,0.1-0.2,0-0.3-0.1
				c0,0,0.1,0.1,0.1,0.1c0,0,0.1,0,0.1,0c0,0,0,0.1-0.1,0.1c0,0,0,0.1-0.1,0.1c0,0-0.1,0.1-0.2,0.1c0,0-0.1,0.1-0.1,0.1c0,0,0,0,0,0
				c0,0,0,0,0,0c0,0,0,0.1,0,0.1c0,0,0,0,0,0c0,0,0,0,0,0.1c0,0,0,0,0,0.1c0,0.1,0,0.1,0,0.1c0,0.1,0,0.1,0,0.1c0,0-0.1,0-0.1,0
				c-0.1,0-0.2-0.1-0.2-0.2c0,0.1,0.1,0.2,0.2,0.3c0,0,0.1,0,0.1,0c0,0,0,0.1,0,0.1c0,0.1,0,0.3,0.1,0.4c0,0.1,0,0.2-0.1,0.3
				c0,0-0.1,0.1-0.1,0.1c-0.1,0.1-0.1,0.2-0.1,0.3c0,0.1,0,0.2,0.1,0.3c-0.1,0,0.1,0.1,0.1,0.1c0,0,0,0,0,0c0,0,0,0-0.1,0
				c0,0,0,0,0,0c0,0,0,0,0,0c0,0-0.1,0-0.1,0c0,0,0-0.1-0.1-0.2c0,0.1,0,0.1,0,0.2c0.1,0.1,0.1,0,0.2,0c0,0,0.1,0,0.1-0.1
				c0,0,0,0.1-0.1,0.1c0,0,0,0,0,0.1c0,0,0,0,0,0c0,0,0,0.1,0,0.1c0,0.1,0,0.1,0,0.2l0,0c0,0,0,0,0,0c0,0,0,0-0.1,0c0,0,0,0,0.1,0.1
				c0,0.1,0,0.1,0,0.2c0,0,0,0,0,0c0,0,0,0,0,0c0,0,0,0,0,0c0,0.1,0.1,0.1,0.1,0.1c0,0,0.1,0,0.1,0.1c0,0,0,0.1,0,0.1c0,0,0,0,0,0
				c0,0,0,0,0,0c0,0,0,0.1,0,0.1c0,0-0.1,0-0.1,0.1c0,0,0,0,0,0c-0.1,0-0.1,0-0.2-0.1c0,0,0,0,0,0c0,0,0,0,0,0c0,0,0,0-0.1-0.1
				c-0.1-0.1-0.2-0.2-0.2-0.3c0,0.1,0.1,0.3,0.1,0.4c0.1,0.1,0.2,0.2,0.3,0.3c0,0,0.1,0,0.1,0c0,0,0,0,0,0c0,0.1,0.1,0.2,0.1,0.3
				c0,0.1,0,0.1-0.1,0.1c0,0,0,0,0,0c0,0-0.1,0-0.1,0c0,0-0.1,0-0.1-0.1c0,0,0-0.1,0-0.1c0,0.1,0,0.1,0,0.2c0,0,0,0.1,0.1,0.1h0
				c0,0,0,0,0,0c0,0,0,0,0.1,0c0.1,0,0.1,0,0.2,0c0,0,0.1,0,0.1,0c0,0,0.1-0.1,0.1-0.1c0,0,0,0,0-0.1c0,0,0,0,0,0c0,0,0,0.1,0,0.1
				c0,0.1,0,0.2,0,0.3c0,0,0,0,0,0.1c0,0,0,0,0,0.1c0,0,0,0,0,0c0,0-0.1,0-0.1,0.1c-0.1,0-0.2,0-0.2-0.1c-0.1-0.1-0.1-0.2-0.1-0.3
				c0,0.1,0,0.2,0,0.3c0,0.1,0.1,0.1,0.1,0.1c0.1,0,0.1,0.1,0.2,0c0.1,0,0.2,0,0.2-0.1c0,0,0.1,0.1,0.1,0.1c0,0,0,0,0,0.1
				c0,0,0,0,0,0c-0.1,0-0.1,0-0.2,0c-0.1,0-0.1,0-0.1-0.1c0,0.1,0,0.1,0.1,0.1c0.1,0,0.1,0,0.2,0c0,0,0,0,0,0c0,0,0,0,0,0
				c0,0.1-0.1,0.1-0.2,0.2c0,0,0,0,0,0c0,0,0,0,0,0c-0.1,0-0.1,0-0.2,0c0.1,0,0.1,0,0.2,0c0,0,0,0,0,0c0,0,0,0.1,0.1,0.1
				c0,0,0,0,0,0c0,0-0.1,0.1,0,0.2c0,0,0.1,0.1,0.2,0.1c0.1,0,0.1,0,0.2-0.1c0.1,0,0.1,0.1,0.2,0.1c0,0,0,0,0,0c0,0,0,0,0,0
				c0,0,0,0,0,0c0,0,0,0,0,0c-0.1,0-0.2,0-0.3-0.1c0,0.1,0.2,0.2,0.3,0.2c0,0,0.1,0,0.1-0.1c0,0,0,0,0,0c0,0,0.1,0,0.1,0.1
				c-0.1,0-0.3,0.1-0.4,0.1c-0.3,0.3-0.7,0.5-1.1,0.7c0,0.3-0.3,0.4-0.5,0.5c0,0.1-0.1,0.2-0.1,0.3c0,0.1-0.1,0.1-0.1,0.1
				c0,0.1-0.1,0.1-0.1,0.1c0,0.3-0.2,0.4-0.3,0.6c-0.1,0.2-0.2,0.4-0.2,0.6c-0.2,0.3-0.3,0.6-0.5,0.9c-0.1,0.3-0.2,0.6-0.2,0.9
				c-0.2,0.5-0.6,0.9-0.8,1.4c0,0.1,0.1,0,0.1,0.1c0,0,0.1,0,0.1,0c-0.4,0.6-0.7,1.3-1.1,1.8c-0.4,0.5-0.8,1.1-1.3,1.6
				c-0.3,0.4-0.7,0.8-1,1.1c-0.4,0.4-0.7,0.7-1.1,1.1c-0.1,0.1-0.3,0.2-0.4,0.3c-0.1,0-0.1,0.1-0.2,0.1c-0.1,0.1-0.2,0.1-0.2,0.1
				c-0.1,0-0.1,0.1-0.1,0.1c-0.1,0-0.1,0.1-0.1,0.1c-0.1,0.1-0.1,0.1-0.2,0.2c-0.2,0.1-0.4,0.2-0.6,0.4c0,0-0.1,0-0.1,0
				c-0.1,0.1-0.3,0.2-0.5,0.3c0,0.2,0,0.2,0,0.4c-0.1,0.1-0.1,0.2-0.2,0.3c-0.1,0.1-0.1,0.2-0.2,0.3c0.1,0.1,0.2,0.1,0.2,0.2
				c0,0,0.1-0.1,0.2-0.1c0,0,0,0,0,0c0,0-0.2,0.2-0.1,0.3c0.1,0.1,0.3,0.1,0.4,0c0.1,0,0,0.2,0,0.2c0.1,0,0.1,0,0.1,0.1
				c0.1,0,0.2,0,0.2-0.1c0,0.1,0.2,0.1,0.3,0.2c0.2-0.1,0.4-0.2,0.6-0.2c0.3-0.3,0.4-0.7,0.6-1.1c0-0.4,0.3-0.6,0.4-0.9
				c0.1-0.1,0.2-0.1,0.2-0.3c0.1-0.1,0.2-0.1,0.2-0.3c0.3-0.2,0.6-0.5,0.9-0.8c0.3-0.3,0.6-0.6,0.9-0.8c0.3-0.2,0.6-0.5,1-0.7
				c0.1-0.1,0.2-0.1,0.3-0.2c0.2-0.2,0.4-0.4,0.6-0.6c0.1-0.2,0.2-0.3,0.3-0.5c0,0,0-0.1,0-0.1c0,0,0,0,0,0c0-0.1,0.1-0.2,0.2-0.3
				c0,0,0,0,0,0c0,0,0,0,0,0c0.1-0.1,0.2-0.2,0.2-0.3c0.3-0.4,0.5-0.8,0.8-1.2c0-0.1,0.1-0.1,0.1-0.2c0.1,0,0.1-0.1,0.2-0.2
				c0.1,0,0.1-0.1,0.2-0.1c0.2,0,0.4,0.1,0.5,0.2c0,0.5-0.1,0.9-0.1,1.5c0,0.1,0.1,0.1,0.1,0.1c0,0,0.1,0.1,0.1,0.1
				c0.1,0,0.2,0.1,0.3,0.1c-0.1,0.1-0.1,0.4-0.1,0.6c0,0.1,0,0.1,0,0.2c-0.1,0.3-0.4,0.5-0.5,0.8c-0.2,0.2-0.3,0.5-0.5,0.8
				c-0.1,0.3-0.1,0.5-0.2,0.7c0,0.4-0.1,0.7-0.2,1c0,0.9-0.2,1.7-0.4,2.5c0,0,0,0,0,0c0,0-0.1,0-0.1-0.1l0,0.2
				c-0.5,0.8-0.8,1.9-1,2.7c-0.2,0.7-0.2,0.8,0.6,0.9c0.6,0.1,1.1,0.3,1.6,0.5c0,0.1,0,0.1,0,0.2c0,0.6,0,1.2,0.1,1.8
				c0,0.6,0.1,1.1,0.1,1.7c0,0.3,0,0.6,0,0.9c0,0.3,0,0.6,0,0.9c0,0.3-0.1,0.5-0.2,0.8C78,39.9,78,40.2,78,40.5c0,0.3,0,0.7,0,1
				c0,0.3,0.1,0.6,0.1,0.9c0.1,0.5,0.2,0.9,0.3,1.4c0.1,0.4,0.2,0.9,0.3,1.3c0,0.1-0.1,0.1-0.1,0.2c0.1,0.8,0.3,1.7,0,2.4
				c0,0.1,0,0.1,0,0.2c0,0.1-0.1,0.2-0.1,0.3c0,0.2-0.1,0.3-0.1,0.5c-0.2,0.3-0.4,0.5-0.5,0.8c0,0.3-0.1,0.6,0,0.9
				c0.3,0.3,0.8,0.4,1.3,0.5c0.2,0,0.5,0,0.7,0c0.3,0,0.4-0.2,0.6-0.3c0.1-0.6,0-1.2,0.1-1.8c0-0.1-0.1-0.1-0.1-0.2
				c0-0.3,0-0.5-0.1-0.7c0-0.2,0-0.5,0.1-0.7c-0.1-0.5-0.1-1.1-0.1-1.7c0-0.1-0.1-0.2-0.1-0.3c0-1.1,0.3-2,0.4-3
				c0.1-0.8,0-1.7,0-2.4c0-0.2,0.1-0.5,0.1-0.7c0.1-0.6,0-1.2,0-1.9c0.2-1,0.4-1.9,0.6-2.8c0.1,0,0.3,0,0.4,0.1c0,0.6,0,1.2,0,1.7
				c0,0.1,0,0.2,0,0.2c0,0.2,0,0.4,0,0.6c0,0.3-0.1,0.6-0.1,1c-0.1,0.3,0,0.7,0,1.1c0.1,0.3,0.1,0.7,0.2,1c0,0.8-0.1,1.4,0,2.2
				c0.2,0.9,0.4,1.8,0.4,2.9c0,0.2-0.1,0.1-0.1,0.3c0,0.6,0.1,1.2-0.1,1.6c0,0.2,0.1,0.4,0,0.7c-0.1,0.3-0.1,0.6-0.2,0.9
				c0,0.5,0,1.1,0,1.7c0.1,0.1,0.2,0.2,0.2,0.2c0.1,0,0.2,0.1,0.4,0.1c0.5,0,1,0,1.4-0.1c0.3-0.1,0.5-0.1,0.6-0.3c0-0.3,0-0.6,0-0.9
				c-0.1-0.2-0.3-0.4-0.5-0.6c0-0.2-0.1-0.3-0.1-0.5c0-0.1-0.1-0.1-0.1-0.2c0-0.1,0-0.2,0-0.3c-0.1-0.4-0.2-0.8-0.1-1.2
				c0-0.4,0.1-0.8,0.1-1.2c0-0.1-0.1-0.1-0.1-0.2c0.3-1.1,0.5-2.3,0.7-3.6c0-0.3,0-0.6,0-0.9c-0.1-0.6-0.2-1.2-0.4-1.7
				c0-1.5,0.5-2.6,0.8-3.8c0-0.2,0.1-0.4,0.1-0.6c0.1,0,0.2,0,0.3,0c0.8-0.1,2.6,0.1,2.6-1c0-1-0.4-2-0.5-2.9c0-0.4,0-0.7-0.1-1.1
				c0-0.1,0-0.3,0-0.4c0-0.6,0-1.3,0-1.9c-0.1-0.6-0.2-1.2-0.3-1.7c-0.3-0.5-0.5-0.9-0.8-1.3c0-0.1-0.1-0.2-0.1-0.3
				c0-0.1,0.1-0.1,0.1-0.2c-0.1-0.2,0-0.5-0.1-0.6c0.2-0.1,0.3-0.1,0.5-0.2c0,0,0.1-0.1,0.1-0.1c0-0.2,0-0.4,0.1-0.6
				c0-0.2-0.1-0.6,0-1c0-0.1,0.1,0,0.1,0c0.2-0.1,0.5-0.2,0.7-0.3c0.1,0,0.1,0.1,0.2,0.2c0,0.1,0.1,0.1,0.1,0.2
				c0.3,0.4,0.4,0.8,0.7,1.2c0.3,0.5,0.6,1,0.9,1.6c0.2,0.2,0.4,0.5,0.6,0.7c0.3,0.2,0.5,0.4,0.8,0.6c0.1,0.1,0.2,0.2,0.4,0.3
				c0.1,0.1,0.3,0.2,0.3,0.3c0.5,0.5,0.8,1,1.3,1.4c0.1,0.2,0.2,0.4,0.4,0.5c0.1,0.2,0.2,0.3,0.3,0.5c0.1,0.6,0.3,1.1,0.6,1.6
				c0.2,0.1,0.4,0.2,0.6,0.3c0.1-0.1,0.2,0,0.2-0.2c0.1,0,0.1,0.1,0.3,0.1c0,0,0,0,0.1,0c0.1,0,0.1-0.1,0.1-0.2
				c0.1,0,0.1,0.1,0.2,0.1c0.1,0,0.1-0.1,0.2-0.1c0-0.2,0-0.2-0.1-0.3c0.1,0,0.1,0.1,0.2,0.1C95.6,29.7,95.7,29.6,95.8,29.6z
				 M83.4,6.2C83.3,6.2,83.3,6.2,83.4,6.2C83.3,6.2,83.3,6.2,83.4,6.2z M79,11C79,11,79,11,79,11C79,11,79,11,79,11
				C79,11,79,11,79,11C79,11,79,11,79,11z M78.9,9.1C78.9,9.1,78.9,9.1,78.9,9.1C78.9,9.1,78.9,9.1,78.9,9.1z M78.8,9.4
				C78.8,9.4,78.8,9.3,78.8,9.4C78.9,9.3,78.9,9.4,78.8,9.4z M78.9,9.5C78.9,9.5,78.8,9.5,78.9,9.5C78.9,9.5,78.9,9.4,78.9,9.5
				C79,9.4,78.9,9.5,78.9,9.5C78.9,9.6,78.9,9.5,78.9,9.5z M78.9,10.4C78.9,10.4,78.9,10.4,78.9,10.4C78.9,10.4,78.9,10.4,78.9,10.4
				C78.9,10.4,78.9,10.4,78.9,10.4z M78.9,9.9C78.9,9.9,78.9,9.9,78.9,9.9C78.9,9.9,78.9,9.9,78.9,9.9c0.1-0.1,0.1-0.1,0.1-0.1
				C78.9,9.9,78.9,9.9,78.9,9.9z M79,9.4C79,9.4,79,9.4,79,9.4C78.9,9.4,79,9.2,79,9.4z M79,8.4c0,0,0-0.2,0-0.2
				C79,8.1,79.1,8.3,79,8.4z M79.1,10.6C79.1,10.6,79.1,10.6,79.1,10.6C79.1,10.6,79.1,10.5,79.1,10.6
				C79.1,10.5,79.1,10.5,79.1,10.6C79.1,10.5,79.1,10.6,79.1,10.6z M79.1,8.1C79,8.1,79.1,7.9,79.1,8.1L79.1,8.1z M79.2,11.2
				c0,0,0,0.1,0,0.1C79.1,11.4,79.1,11.3,79.2,11.2c0,0,0-0.1,0-0.1c0,0,0,0,0,0C79.2,11.2,79.2,11.2,79.2,11.2z M79.1,11.1
				C79.1,11.1,79.1,11.1,79.1,11.1C79.1,11.1,79.1,11.1,79.1,11.1L79.1,11.1C79.1,11.1,79.1,11.1,79.1,11.1c0-0.1,0-0.1,0-0.2
				c0,0,0,0,0,0C79.2,11,79.2,11.1,79.1,11.1z M79.1,7.7C79.1,7.6,79.1,7.6,79.1,7.7c0-0.1,0-0.2,0.1-0.2c0,0,0,0,0,0
				c0.1,0,0,0,0.1,0C79.3,7.5,79.2,7.6,79.1,7.7z M79.3,11.5C79.2,11.5,79.2,11.5,79.3,11.5C79.2,11.5,79.2,11.5,79.3,11.5
				C79.3,11.4,79.3,11.4,79.3,11.5C79.3,11.4,79.3,11.4,79.3,11.5C79.3,11.5,79.3,11.5,79.3,11.5z M79.4,11.8
				C79.4,11.8,79.4,11.8,79.4,11.8C79.4,11.8,79.4,11.8,79.4,11.8C79.4,11.8,79.4,11.8,79.4,11.8C79.4,11.8,79.4,11.8,79.4,11.8z
				 M79.4,11.9C79.4,11.9,79.4,11.9,79.4,11.9C79.4,11.9,79.4,11.9,79.4,11.9C79.4,11.9,79.4,11.9,79.4,11.9
				C79.4,11.9,79.4,11.9,79.4,11.9z M79.7,12.2C79.7,12.2,79.7,12.2,79.7,12.2C79.7,12.3,79.7,12.3,79.7,12.2
				C79.7,12.3,79.7,12.3,79.7,12.2C79.7,12.3,79.7,12.3,79.7,12.2C79.7,12.2,79.7,12.2,79.7,12.2z M79.6,12.1
				C79.6,12.1,79.6,12.1,79.6,12.1C79.6,12.2,79.6,12.2,79.6,12.1C79.6,12.1,79.6,12.1,79.6,12.1C79.6,12.1,79.6,12.1,79.6,12.1
				C79.6,12.1,79.6,12.1,79.6,12.1z M79.5,12.8C79.4,12.8,79.4,12.8,79.5,12.8c-0.1-0.1-0.1-0.1-0.1-0.1c0.1,0,0.2-0.1,0.3-0.2
				c0,0,0-0.1,0-0.1c0,0,0,0,0,0c0,0.1,0,0.2-0.1,0.3C79.6,12.7,79.5,12.8,79.5,12.8z M79.5,12.9C79.5,12.9,79.5,12.9,79.5,12.9
				c0-0.1,0-0.1,0-0.1C79.6,12.9,79.6,12.9,79.5,12.9c0.1-0.1,0.1-0.1,0.1-0.1c0,0,0,0,0,0c0,0,0.1,0,0.1,0c0,0.1,0,0.1,0.1,0.1
				C79.7,13,79.6,13,79.5,12.9z M84.8,9.2C84.8,9.2,84.8,9.3,84.8,9.2C84.7,9.3,84.7,9.2,84.8,9.2z M84.6,9.1
				C84.6,9,84.6,9,84.6,9.1C84.7,9,84.7,9.1,84.6,9.1z M84.5,8.2L84.5,8.2C84.4,8.2,84.4,8.2,84.5,8.2C84.4,8.2,84.5,8.2,84.5,8.2
				C84.5,8.2,84.5,8.2,84.5,8.2z M84.5,7.4C84.5,7.4,84.5,7.4,84.5,7.4C84.4,7.4,84.4,7.3,84.5,7.4C84.5,7.3,84.5,7.4,84.5,7.4z
				 M84.4,7.6C84.4,7.6,84.4,7.6,84.4,7.6C84.4,7.7,84.3,7.7,84.4,7.6C84.4,7.6,84.4,7.6,84.4,7.6C84.4,7.6,84.4,7.6,84.4,7.6z
				 M85,10.9C85,10.9,85,10.9,85,10.9C85,10.9,85,10.9,85,10.9C85,10.9,85,10.9,85,10.9z M85.1,10.4C85.1,10.4,85.1,10.4,85.1,10.4
				C85.2,10.4,85.2,10.5,85.1,10.4C85.1,10.5,85.1,10.4,85.1,10.4z M85.7,13.6C85.7,13.5,85.7,13.6,85.7,13.6
				C85.7,13.6,85.7,13.6,85.7,13.6z M85.9,13.5C85.8,13.4,85.8,13.4,85.9,13.5c0-0.1,0-0.2,0-0.3c0,0,0,0,0,0c0,0,0,0,0.1,0
				c0,0.1,0,0.1,0,0.2C85.9,13.4,85.9,13.4,85.9,13.5z M85.9,12.2C85.9,12.2,85.9,12.2,85.9,12.2C85.9,12.2,85.8,12.2,85.9,12.2
				C85.8,12.2,85.9,12.2,85.9,12.2z M85.8,12.2c0,0,0.1,0,0.1,0c0,0,0,0,0,0.1c0,0,0,0.1-0.1,0.1c0,0,0,0,0,0
				C85.8,12.3,85.8,12.3,85.8,12.2C85.8,12.3,85.7,12.3,85.8,12.2c-0.1,0-0.1,0-0.1-0.1C85.7,12.2,85.8,12.2,85.8,12.2z M85.6,11.8
				C85.6,11.8,85.6,11.8,85.6,11.8C85.6,11.8,85.6,11.8,85.6,11.8c0-0.1-0.1-0.1-0.1-0.1c0,0,0,0,0.1,0
				C85.6,11.7,85.6,11.8,85.6,11.8z M85.5,11.5C85.5,11.5,85.5,11.5,85.5,11.5c-0.1-0.1-0.1-0.1-0.1-0.1
				C85.5,11.5,85.5,11.5,85.5,11.5z M85.7,10C85.7,10,85.7,10.1,85.7,10C85.7,10.1,85.7,10.1,85.7,10C85.7,10.1,85.6,10.1,85.7,10
				c-0.1,0.1-0.1,0.1-0.2,0.1c0,0-0.1-0.1-0.1-0.1c0,0,0,0,0,0c0,0,0,0,0,0c0,0,0.1,0,0.1-0.1C85.6,10,85.6,10,85.7,10z M85.4,9.8
				C85.4,9.8,85.5,9.8,85.4,9.8c0.1,0.1,0.1,0.1,0.1,0.1c0,0-0.1,0-0.1,0c0,0,0,0,0,0C85.3,9.8,85.3,9.8,85.4,9.8
				C85.3,9.7,85.4,9.7,85.4,9.8z M85,9.4C85,9.4,85,9.4,85,9.4C85,9.4,85,9.4,85,9.4C85,9.4,85,9.4,85,9.4C85,9.4,85,9.4,85,9.4
				C85,9.4,85,9.4,85,9.4z M85,9.5C85,9.5,85,9.5,85,9.5C85,9.5,85,9.5,85,9.5C85,9.5,85,9.5,85,9.5C85,9.5,85,9.5,85,9.5z M85,9.6
				C85.1,9.6,85.1,9.6,85,9.6C85.1,9.6,85.1,9.7,85,9.6c0.1,0.2,0.1,0.3,0.2,0.4c0,0,0,0,0.1,0.1c0,0,0,0,0,0c0,0,0,0,0,0
				c0,0,0,0-0.1,0c0,0-0.1,0-0.1,0c0,0-0.1,0-0.1-0.1c0,0-0.3-0.3-0.1-0.3c0,0,0,0,0,0C84.9,9.6,84.9,9.6,85,9.6
				C85,9.6,85,9.6,85,9.6z M84.9,9.1C84.9,9.1,84.9,9.1,84.9,9.1C84.9,9.1,84.9,9.2,84.9,9.1C84.9,9.1,84.8,9.1,84.9,9.1
				C84.8,9,84.9,9,84.9,9.1C84.9,9.1,84.9,9.1,84.9,9.1z M84.8,9C84.8,9,84.8,9,84.8,9C84.8,9,84.8,9,84.8,9C84.8,9,84.8,9,84.8,9
				C84.8,9,84.8,9,84.8,9z M84.8,9.3c0-0.1,0.1-0.1,0.1-0.2c0,0,0,0,0,0c0,0,0,0,0,0C84.9,9.2,84.9,9.3,84.8,9.3
				C84.9,9.3,84.8,9.4,84.8,9.3C84.8,9.4,84.8,9.4,84.8,9.3C84.7,9.3,84.8,9.3,84.8,9.3z M84.8,8.1C84.8,8.1,84.8,8.1,84.8,8.1
				C84.8,8.1,84.8,8.1,84.8,8.1c0,0,0.1,0,0.1,0c0,0,0,0.1,0,0.1c0,0,0,0.1,0,0.1c0,0,0,0,0,0c-0.1,0-0.1,0.1-0.2,0.1
				c0,0,0-0.1,0-0.1c0,0,0-0.1,0-0.1c0,0,0,0,0,0c0,0,0,0,0,0c0,0,0,0,0-0.1C84.7,8.1,84.7,8.1,84.8,8.1C84.8,8.1,84.8,8.1,84.8,8.1
				z M84.5,7.8c0.1,0,0.2,0,0.2,0c0,0,0,0,0,0C84.7,7.9,84.6,7.8,84.5,7.8C84.5,7.8,84.5,7.8,84.5,7.8C84.5,7.8,84.5,7.8,84.5,7.8z
				 M84.6,8.3C84.6,8.3,84.6,8.3,84.6,8.3C84.6,8.3,84.6,8.4,84.6,8.3C84.6,8.4,84.6,8.4,84.6,8.3C84.5,8.4,84.5,8.3,84.6,8.3z
				 M84.5,8.6C84.5,8.6,84.5,8.6,84.5,8.6C84.5,8.6,84.5,8.6,84.5,8.6C84.5,8.6,84.5,8.6,84.5,8.6z M84.5,6.9
				c0.1,0.1,0.1,0.2,0.1,0.3c0,0,0,0.1,0,0.1c0-0.2-0.1-0.3-0.2-0.4C84.4,6.9,84.4,6.9,84.5,6.9z M84.2,6.9
				C84.2,6.9,84.3,6.9,84.2,6.9c0.1,0,0.1,0,0.2,0.1C84.3,6.9,84.2,6.9,84.2,6.9L84.2,6.9C84.2,6.9,84.2,6.9,84.2,6.9z M84.2,6.9
				c0.1,0,0.2,0,0.2,0c0,0,0,0,0,0c0,0.1,0.1,0.2,0.1,0.2c0,0-0.2-0.1-0.2-0.1C84.2,7,84.2,7,84.2,6.9C84.1,6.9,84.2,6.9,84.2,6.9z
				 M84.2,7.1c0,0-0.1,0-0.1,0C84.1,7.1,84.2,7,84.2,7.1z M83.8,6.8C83.8,6.7,83.9,6.7,83.8,6.8C83.9,6.8,83.9,6.8,83.8,6.8z
				 M83.8,6.4C83.8,6.4,83.8,6.4,83.8,6.4c0.1,0.1,0.1,0.1,0.1,0.1c0,0,0,0-0.1,0C83.8,6.5,83.8,6.5,83.8,6.4
				C83.8,6.4,83.8,6.4,83.8,6.4C83.8,6.4,83.8,6.4,83.8,6.4C83.8,6.3,83.8,6.3,83.8,6.4z M83.7,6.5C83.7,6.6,83.8,6.6,83.7,6.5
				C83.8,6.6,83.7,6.6,83.7,6.5C83.7,6.6,83.7,6.6,83.7,6.5z M83,5.9C83,6,83.1,6.1,83.2,6.2c0,0,0,0,0,0c0,0,0,0,0-0.1
				C83.1,6.1,83.1,6.1,83,5.9C83,6,83,6,83,5.9C83,5.9,83,5.9,83,5.9C83,5.9,83,5.9,83,5.9z M82.9,5.8c-0.1,0-0.1,0-0.2-0.1
				c0,0,0,0,0,0C82.8,5.8,82.9,5.8,82.9,5.8z M82.7,5.9c0,0,0.1,0,0.1,0C82.9,5.9,82.8,6,82.7,5.9C82.8,5.9,82.7,5.9,82.7,5.9
				C82.7,5.9,82.7,5.9,82.7,5.9z M82.4,6C82.4,6,82.4,6,82.4,6C82.4,6,82.4,6,82.4,6C82.4,6,82.4,6,82.4,6z M82.1,5.9
				C82.1,5.9,82,6,82.1,5.9C82,5.9,82,5.9,82.1,5.9C82,5.9,82.1,5.9,82.1,5.9z M80.4,13.1c0,0-0.1-0.1-0.1-0.1
				C80.4,13,80.5,13.1,80.4,13.1z M80.4,12.4C80.4,12.4,80.4,12.4,80.4,12.4C80.4,12.4,80.4,12.4,80.4,12.4
				C80.4,12.4,80.4,12.4,80.4,12.4z M80.3,12.6C80.3,12.6,80.2,12.5,80.3,12.6c-0.1-0.1-0.1-0.1,0-0.1
				C80.3,12.5,80.3,12.5,80.3,12.6C80.3,12.6,80.3,12.6,80.3,12.6z M80.6,12.5C80.6,12.5,80.6,12.5,80.6,12.5
				C80.6,12.5,80.6,12.5,80.6,12.5C80.6,12.5,80.6,12.5,80.6,12.5z M80.7,12.7C80.7,12.8,80.7,12.8,80.7,12.7
				C80.7,12.8,80.7,12.8,80.7,12.7C80.7,12.7,80.7,12.7,80.7,12.7L80.7,12.7L80.7,12.7z M80.7,12.8C80.7,12.9,80.7,12.9,80.7,12.8
				C80.7,12.9,80.7,12.9,80.7,12.8C80.6,12.9,80.6,12.9,80.7,12.8C80.6,12.8,80.7,12.8,80.7,12.8z M80.7,13c0.1,0,0,0.1,0,0.1
				C80.7,13,80.7,13,80.7,13C80.7,13,80.7,13,80.7,13z M81.2,12.4C81.2,12.4,81.2,12.4,81.2,12.4C81.1,12.4,81.2,12.4,81.2,12.4z
				 M81.1,12.2C81.1,12.2,81.1,12.2,81.1,12.2C81.2,12.2,81.2,12.2,81.1,12.2C81.1,12.3,81.1,12.3,81.1,12.2z M81.2,12.5
				C81.3,12.6,81.2,12.6,81.2,12.5C81.2,12.5,81.2,12.5,81.2,12.5z M81.3,12.3c0,0,0,0.1,0,0.1C81.2,12.4,81.2,12.3,81.3,12.3z
				 M81.3,12.7C81.3,12.7,81.4,12.7,81.3,12.7C81.4,12.7,81.4,12.7,81.3,12.7z M81,12.4C81,12.4,81,12.4,81,12.4
				C81,12.4,80.9,12.4,81,12.4C80.9,12.3,80.9,12.3,81,12.4C80.9,12.3,81,12.3,81,12.4z M81.1,13.1c0-0.1,0-0.1,0-0.2c0,0,0,0,0,0
				C81.1,13,81.1,13.1,81.1,13.1C81.1,13.1,81.1,13.1,81.1,13.1z M81.5,5.8C81.6,5.8,81.6,5.8,81.5,5.8L81.5,5.8
				C81.6,5.8,81.6,5.8,81.5,5.8c0.1,0,0.1,0,0.1,0c0,0,0.1,0,0.1,0.1c0,0,0,0,0,0C81.7,5.9,81.5,5.9,81.5,5.8
				C81.5,5.8,81.5,5.8,81.5,5.8C81.5,5.8,81.5,5.8,81.5,5.8z M81,6C81.1,5.9,81.1,5.9,81,6C81.1,6,81.1,6,81,6C81.1,6,81,6,81,6
				C81,6,81,6,81,6z M81,6c0,0,0.1,0,0.1,0c-0.1,0-0.2,0.1-0.2,0.1C80.9,6,80.9,6,81,6z M79.9,6.8C79.9,6.8,79.9,6.8,79.9,6.8
				C79.8,6.7,79.9,6.7,79.9,6.8z M79.9,12.2C79.9,12.2,79.9,12.2,79.9,12.2c0-0.1,0-0.1,0-0.1C79.9,12.1,79.9,12.2,79.9,12.2
				C79.9,12.3,79.9,12.3,79.9,12.2C79.9,12.3,79.9,12.3,79.9,12.2z M79.9,12.6C79.9,12.6,79.9,12.6,79.9,12.6
				C79.9,12.6,79.9,12.6,79.9,12.6C79.9,12.6,79.9,12.6,79.9,12.6C79.9,12.6,79.9,12.6,79.9,12.6z M80,12.8
				C80.1,12.7,80.1,12.7,80,12.8C80.1,12.7,80.1,12.8,80,12.8C80,12.8,80,12.8,80,12.8C80,12.8,80,12.8,80,12.8z M80.1,13
				c-0.1,0-0.1-0.1,0-0.1C80.1,12.9,80.1,12.9,80.1,13z M80.3,13.1c-0.1,0-0.1-0.1-0.1-0.1C80.2,13,80.3,13,80.3,13.1z M80.7,13.1
				c0,0,0-0.1,0.1-0.1C80.8,13,80.8,13,80.7,13.1c0.1,0,0.1,0.1,0.1,0.1c0,0,0,0-0.1,0c0,0,0,0,0,0C80.7,13.2,80.7,13.1,80.7,13.1z"
				/>
			<path id="XMLID_1280_" class="st2" d="M79,10.8C79,10.8,79,10.8,79,10.8C79,10.8,79,10.8,79,10.8z"/>
		</g>
	</g>
</g>
<g id="XMLID_41_">
	
		<image style="overflow:visible;opacity:0.23;" width="30" height="50" id="XMLID_270_" xlink:href="F73CE820.png"  transform="matrix(1 0 0 1 27.3333 4.1667)">
	</image>
	<g id="XMLID_196_">
		<g id="XMLID_235_">
			<path id="XMLID_236_" class="st3" d="M52.3,27.2c-0.1,0-0.3,0-0.3-0.1c-0.1,0-0.2,0-0.2,0c-0.1,0-0.2-0.1-0.3-0.1
				c-0.3,0-0.7,0-1,0c-0.4-0.2-0.6-0.6-0.8-0.9c-0.2-0.4-0.4-0.8-0.6-1.2c-0.2-0.4-0.4-0.8-0.7-1.1c-0.2-0.3-0.6-0.6-0.8-1
				c0,0,0,0,0-0.1c-0.2-0.5-0.5-1-0.6-1.6c0.1,0,0.2-0.1,0.2-0.2c-0.1-0.8-0.3-1.6-0.4-2.4c0-0.2,0-0.3-0.1-0.5
				c-0.1-0.3-0.2-0.6-0.3-0.9c-0.1-0.1-0.2-0.3-0.2-0.5c-0.1-0.1-0.2-0.3-0.3-0.4c-0.2-0.1-0.4-0.3-0.6-0.4
				c-0.1-0.1-0.2-0.1-0.3-0.2c-0.1,0-0.2-0.1-0.4-0.2c-0.2-0.1-0.5-0.2-0.7-0.3c-0.2-0.1-0.5-0.2-0.6-0.4c-0.1,0-0.1-0.1-0.2-0.1
				c-0.2-0.2-0.4-0.3-0.5-0.5c-0.2-0.2-0.3-0.4-0.5-0.6c-0.1-0.3-0.2-0.6-0.2-1c0.1-0.3,0.1-0.6,0.2-0.9c0,0,0.2,0,0.2-0.1
				c0.1-0.2,0.1-0.6,0.1-0.9c0-0.1,0-0.2,0-0.3c0.1-0.1,0.1-0.1,0.2-0.2c0,0,0.1-0.1,0.2-0.1c0.1,0,0.1,0,0.1-0.1c0-0.1,0-0.1,0-0.1
				c0-0.1,0-0.1-0.1-0.2c0-0.1-0.1-0.1-0.1-0.2c0,0,0,0,0,0c-0.1,0-0.1-0.1-0.1-0.2c0,0,0,0,0,0c0.1,0,0.1,0.1,0.2,0.1
				c0.1,0,0.2,0,0.2,0c-0.1,0-0.2,0-0.3-0.1c0,0,0,0,0,0c0-0.1-0.1-0.2-0.2-0.3c0,0-0.1-0.3-0.1-0.3c0,0,0,0,0,0
				c0.1,0.1,0.1,0.2,0.2,0.3c-0.1-0.1-0.2-0.2-0.2-0.3c0,0,0-0.1,0-0.1c0,0,0,0,0,0c0.1,0,0.1,0.1,0.2,0.1C42.7,9,42.9,9.1,43,9.2
				c-0.1-0.1-0.1-0.2-0.2-0.3c0,0,0,0,0,0C42.8,8.9,42.9,9,43,9c-0.1,0-0.2-0.1-0.3-0.2c-0.1-0.1-0.2-0.1-0.2-0.2
				c-0.1,0-0.2-0.1-0.3-0.1c-0.1,0-0.1,0-0.2,0l0,0c0,0,0,0,0,0c0.1-0.1,0.2-0.2,0.2-0.2c-0.1,0.1-0.1,0.1-0.2,0.2c0,0,0,0-0.1,0
				c0,0,0-0.1-0.1-0.1c-0.1,0-0.1-0.1-0.1-0.1c0.1,0,0.1,0,0.2-0.1C41.9,8.1,42,8.1,42,8c-0.1,0.2-0.2,0.2-0.4,0.2
				c-0.1,0-0.2,0-0.2-0.1c0,0,0.1,0,0.1,0c0,0,0.1,0,0.1-0.1c0-0.1,0-0.1,0-0.2c0,0.1,0,0.1,0,0.2c0,0.1-0.1,0-0.1,0
				c-0.1-0.1-0.2-0.1-0.3-0.2c0,0-0.1-0.1-0.1-0.1c0,0,0,0-0.1-0.1c0,0,0,0,0,0c0,0,0,0-0.1,0c-0.1,0-0.2,0-0.3-0.1
				c0.1-0.1,0.1-0.2,0.1-0.3c0,0.1,0,0.2-0.1,0.3c-0.1,0-0.2,0-0.3,0c-0.1,0-0.2-0.1-0.3-0.1c0,0,0,0,0,0c0,0,0,0,0,0c0,0,0,0,0,0
				C40,7,40,6.9,40,6.7c0,0.2-0.1,0.3-0.2,0.5c0,0,0,0.1-0.1,0.1c0,0,0,0-0.1,0c0-0.1-0.2-0.3-0.2-0.3c0,0,0,0,0,0c0,0,0,0-0.1,0
				c0-0.1,0-0.1,0-0.2c0-0.1,0.1-0.3,0-0.4c0.1,0.2-0.1,0.4-0.1,0.6c0,0,0,0,0,0c0-0.1-0.1-0.1-0.1-0.2c0,0,0.1,0,0.1-0.1
				c0,0,0-0.1,0.1-0.1c0-0.1,0-0.2,0-0.2c0,0.1-0.1,0.2-0.1,0.2c0,0.1-0.1,0.1-0.1,0.2c0,0,0,0-0.1,0c0-0.1,0-0.3,0-0.4
				c0,0.2,0,0.3-0.1,0.5c0,0,0,0,0,0c0,0,0,0-0.1,0.1c-0.1-0.2-0.2-0.3-0.4-0.3c0.2,0.1,0.3,0.2,0.3,0.4c0,0,0,0,0,0
				c0,0-0.1,0.1-0.1,0.1c0,0-0.1,0.1-0.1,0.1c0,0,0,0-0.1,0c-0.1,0-0.2,0-0.3,0c-0.1,0-0.2,0-0.3,0c0.1,0,0.1,0,0.2,0
				c0,0-0.1,0-0.1,0.1c-0.1,0-0.2,0.1-0.3,0.1c-0.1,0-0.2,0-0.3-0.1c0.1,0.1,0.2,0.1,0.3,0.1c0.1,0,0.2,0,0.3,0
				c0.1,0,0.2-0.1,0.3-0.1c0,0,0,0,0,0c0,0,0.1,0,0.2,0c0,0,0,0.1,0,0.1c0,0,0,0,0,0.1c-0.1,0-0.1,0-0.2,0c-0.1,0.1-0.2,0.1-0.3,0.2
				c0,0-0.1,0-0.1,0c-0.1,0-0.1,0-0.2-0.1c-0.1,0-0.1,0-0.2,0c-0.1,0-0.1,0-0.2,0c0,0-0.1-0.1-0.1-0.1c0,0,0,0,0,0
				C37.1,7.6,37,7.5,37,7.4c0,0.1,0.1,0.2,0.2,0.3c0,0,0,0-0.1,0c-0.1,0-0.2,0-0.3-0.1c0.1,0.1,0.2,0.2,0.3,0.1c0,0,0.1,0,0.1,0
				c0,0,0.1,0.1,0.1,0.1c0,0,0.1,0.1,0.1,0.1c-0.1,0-0.3,0-0.4,0c0.2,0.1,0.3,0.1,0.5,0.1c0,0,0,0,0,0c-0.1,0-0.2,0.1-0.3,0.2
				c-0.1,0-0.1,0.1-0.2,0.1c-0.1,0-0.2,0.1-0.3,0c-0.1,0-0.2-0.1-0.3-0.1c0.1,0.1,0.2,0.2,0.3,0.2c0.1,0,0.2,0,0.3,0c0,0,0,0,0,0
				c-0.1,0.1-0.1,0.1-0.2,0.2c-0.1,0.1-0.2,0.3-0.4,0.2c0.1,0,0.2,0,0.3,0c0.1,0,0.1-0.1,0.2-0.1c0,0,0,0,0,0c0,0,0,0,0,0
				c0.1-0.1,0.2-0.2,0.2-0.2c0,0,0,0,0.1,0c-0.1,0.1-0.1,0.2-0.2,0.3c0,0,0,0-0.1,0.1c-0.1,0.1-0.1,0.2-0.2,0.2c0,0,0,0,0,0
				c-0.1,0-0.2,0-0.3,0c0,0,0.1,0.1,0.2,0.1c0,0,0,0,0,0c0,0-0.1,0.1-0.1,0.1c-0.1,0.1,0,0.1,0,0.2c0,0,0,0,0,0
				c-0.2,0-0.3-0.2-0.3-0.4c0,0.1,0,0.2,0.1,0.3c0,0.1,0.1,0.1,0.1,0.2c0,0,0,0.1,0.1,0.1c0,0,0,0,0,0c-0.1,0-0.1,0.1-0.2,0.1
				c0,0-0.1-0.1-0.1-0.1c0,0,0,0.1,0.1,0.1c-0.1,0-0.2-0.1-0.3-0.2c0.1,0.1,0.1,0.2,0.3,0.3c0,0,0.1,0,0.1,0c0,0,0,0,0,0
				c0,0,0,0,0,0c0,0,0,0,0,0c-0.1,0-0.2,0.1-0.3,0.2c-0.1,0.1-0.1,0.2-0.1,0.3c0.1-0.1,0.1-0.2,0.2-0.2c0,0,0,0,0.1-0.1
				c0,0,0,0.1,0,0.1c0,0.1-0.1,0.2-0.1,0.2c0.1-0.1,0.2-0.2,0.3-0.3c0,0,0,0,0,0c0,0.2,0,0.3-0.1,0.5c0,0.1-0.1,0.1-0.2,0.2
				c-0.1,0-0.2,0-0.2,0c0.1,0,0.2,0,0.3,0c0.1,0,0.2-0.1,0.2-0.2c0.1-0.1,0.1-0.2,0.1-0.3c0,0.1,0,0.1,0,0.2c0,0.1-0.1,0.2-0.1,0.3
				c0,0,0,0,0,0c-0.1,0.1-0.1,0.1-0.2,0.2c0.1,0,0.2,0,0.2-0.1c0,0,0,0,0,0c0,0,0,0,0,0c0,0,0,0,0,0c0.1-0.1,0.1-0.1,0.2-0.2
				c0,0,0,0,0,0c0,0.1,0.1,0.2,0,0.3c0,0.1,0,0.3,0,0.4c0,0.1,0.1,0.2,0.1,0.3c0,0.1,0,0.2,0,0.4c0.1,0,0.2-0.1,0.3-0.1
				c0,0.1,0.1,0.1,0.2,0.2c0.1,0.2,0.2,0.4,0.3,0.7c0.1,0.1,0.2,0.2,0.2,0.2c0,0.1,0.1,0.2,0.2,0.3c0.1,0.2,0.3,0.3,0.5,0.5
				c0.1,0,0.1,0.1,0.2,0.1c0,0.1,0.1,0.1,0.2,0.2c0.1,0.3,0.2,0.5,0.2,0.8c-0.1,0-0.3,0-0.4,0.1c0,0.1-0.1,0-0.1,0.1c0,0,0,0,0,0.1
				c-0.1,0.1-0.1,0.1-0.2,0.1c-0.2,0.1-0.4,0.2-0.7,0.3c-0.1,0.1-0.3,0.1-0.4,0.2c-0.2,0.1-0.4,0.3-0.7,0.4
				c-0.2,0.1-0.4,0.3-0.6,0.5c-0.1,0.1-0.2,0.3-0.3,0.4c-0.3,0.6-0.5,1.3-0.6,2c0,0.1,0,0.2,0,0.3c-0.1,0.6-0.3,1.3-0.3,2
				c0,0.1,0.1,0.1,0.1,0.1c0.1,0,0.1,0,0.1,0.1c-0.2,0.5-0.4,0.9-0.5,1.4c-0.2,0.4-0.6,0.7-0.8,1c-0.1,0.2-0.3,0.4-0.4,0.6
				c-0.1,0.2-0.2,0.4-0.3,0.6c-0.2,0.4-0.4,0.8-0.6,1.3c-0.1,0.2-0.2,0.4-0.4,0.6c0,0.1-0.1,0.2-0.2,0.3c-0.1,0.1-0.2,0.2-0.3,0.2
				c-0.3,0-0.6,0-0.9,0c-0.1,0-0.2,0.1-0.4,0.1c-0.1,0.1-0.2,0.1-0.3,0.2c-0.1,0.1-0.2,0.1-0.2,0.3c0,0.1,0.1,0.1,0.2,0.2
				c0.2,0.1,0.3-0.1,0.5-0.1c0.2,0.2-0.1,0.4-0.1,0.7c0,0,0,0.1-0.1,0.2c-0.1,0.2-0.2,0.3-0.2,0.5c0,0,0,0.1,0.1,0.1
				c0,0,0,0.1,0.1,0.1c0,0.1,0.2,0,0.3,0c0,0.1,0.1,0.2,0.2,0.3c0.1,0,0.3,0,0.4-0.1c0.1,0.1,0.2,0.1,0.3,0.2c0.1,0,0.2-0.1,0.3-0.2
				c0.1,0,0.1,0.1,0.3,0.1c0.3-0.1,0.4-0.3,0.6-0.5c0.2-0.4,0.4-0.7,0.4-1.2c0.2-0.3,0.3-0.5,0.5-0.7c0.1-0.1,0.2-0.3,0.2-0.4
				c0.1-0.1,0.2-0.3,0.3-0.4c0-0.1,0.1-0.1,0.1-0.2c0.1,0,0.1-0.1,0.2-0.2c0-0.1,0.1-0.1,0.1-0.2c0.1-0.1,0.1-0.1,0.1-0.2
				c0.1-0.1,0.2-0.2,0.3-0.3c0.1-0.1,0.2-0.2,0.3-0.4c0.1-0.1,0.2-0.3,0.2-0.4c0.1-0.1,0.2-0.3,0.2-0.4c0.2-0.3,0.4-0.5,0.5-0.8
				c0.3-0.6,0.4-1.3,0.7-1.9c0.1,0.1,0.4,0.1,0.5,0.1c0.1,0.9,0.1,1.9,0.1,2.8c0,0.7-0.1,1.4-0.2,2.1c0,0.2-0.1,0.4-0.1,0.6
				c0,0.1,0.1,0.1,0.1,0.1c0,0.1,0.1,0,0.1,0.1c-0.1,0.3-0.1,0.6-0.1,0.9c-0.2,0.5-0.3,1-0.5,1.5c-0.1,0.2-0.2,0.5-0.3,0.7
				c-0.1,0.3-0.1,0.5-0.2,0.8c-0.1,0.3-0.2,0.6-0.3,1c-0.1,0.4-0.1,0.8-0.2,1.1c0,0.2-0.1,0.4-0.1,0.5c-0.1,0.2-0.1,0.5-0.2,0.7
				c-0.1,0.8-0.2,1.5-0.4,2.2c-0.2,0.7-0.4,1.4-0.6,2.1c-0.1,0.4-0.2,0.7-0.3,1c-0.2,0.7-0.4,1.4-0.7,2c-0.1,0.3-0.3,0.6-0.5,0.9
				c0,0.1-0.1,0.3-0.1,0.4c0,0.5-0.1,1-0.2,1.4c-0.1,0.2-0.2,0.3-0.2,0.5c-0.1,0.1-0.2,0.3-0.3,0.5c0,0.1-0.1,0.2-0.1,0.3
				c0,0.1-0.1,0.2-0.1,0.3c0,0.3,0,0.7,0.1,0.9c0.2,0.2,0.5,0.2,0.8,0.2c0.3,0,0.6,0,0.8,0c0,0.1-0.1,0.2-0.1,0.3
				c0,0.1-0.1,0.2-0.1,0.3c0,0,0,0,0,0c0,0.1-0.1,0.1-0.1,0.2c-0.1,0.2-0.3,0.4-0.4,0.6c0,0.1,0,0.2,0,0.3c0.1,0.1,0.2,0.2,0.3,0.3
				c0.2,0,0.4,0.1,0.6,0.2c0.3,0.1,0.7,0,1.1,0c0.4-0.1,0.6-0.2,0.8-0.4c0.1-0.2,0.1-0.3,0.1-0.6c-0.1-0.3-0.1-0.5-0.2-0.8
				c0-0.1,0-0.3,0-0.4c0-0.1,0-0.2-0.1-0.2c0-0.1-0.1-0.2-0.1-0.2c0.3-0.1,0.6-0.1,0.8-0.2c0.1-0.2,0.2-0.6,0.1-0.8
				c0.1-0.7,0.3-1.5,0.5-2.1c0-0.7,0.1-1.2,0.3-1.8c0.2-0.6,0.4-1.2,0.5-1.8c0.1-0.3,0.2-0.6,0.3-0.9c0.1-0.2,0.2-0.4,0.3-0.6
				c0-0.1,0.1-0.1,0.1-0.2c0.1-0.2,0.1-0.4,0.1-0.6c0-0.2,0.1-0.4,0.2-0.6c0.2-0.4,0.4-0.8,0.5-1.2c0.5-0.9,0.7-2.2,1.1-3.1
				c0.1-0.2,0.2-0.4,0.3-0.6c0.2-0.1,0.3-0.3,0.5-0.4c0-0.1,0.1-0.1,0.1-0.2c0-0.1,0.1-0.1,0.1-0.1c0.1-0.1,0.1,0,0.1,0.1
				c0,0.1,0.1,0.1,0.1,0.2c0,0.1,0.1,0.2,0.2,0.3c0.3,0.6,0.6,1.3,0.8,2c0.1,0.3,0.1,0.5,0.2,0.7c0.1,0.3,0.2,0.6,0.3,0.9
				c0.2,0.5,0.4,0.9,0.6,1.4c0.1,0.3,0.2,0.6,0.2,1c0.3,0.8,0.7,1.6,0.9,2.6c0.1,0.2,0.1,0.4,0.2,0.7c0.3,0.6,0.4,1.3,0.4,2.2
				c0.2,0.7,0.4,1.4,0.5,2.2c0,0.1-0.1,0,0,0.1c0,0,0,0.1,0,0.1c0,0.2,0,0.4,0.1,0.6c0.2,0.1,0.6,0.1,0.8,0.2
				c-0.1,0.1-0.1,0.2-0.1,0.3c0,0.3,0,0.5-0.1,0.7c0,0.1-0.1,0.2-0.1,0.3c0,0.1-0.1,0.2-0.1,0.3c0,0.2,0,0.4,0.1,0.6
				c0.1,0.2,0.3,0.3,0.5,0.4c0.4,0.1,0.9,0.2,1.5,0.1c0.2-0.1,0.3-0.1,0.5-0.1c0.1-0.1,0.3-0.2,0.3-0.3c0-0.1,0-0.2,0.1-0.3
				c-0.1-0.3-0.3-0.5-0.5-0.8c-0.1-0.1-0.1-0.3-0.2-0.4c0-0.1-0.1-0.1-0.1-0.2c0,0,0-0.1,0-0.1c0,0-0.1-0.1,0-0.1
				c0.5,0.1,1.3,0.1,1.6-0.1c0-0.1,0-0.1,0.1-0.2c0-0.1,0-0.2,0-0.2c0-0.2,0-0.3,0-0.5c0-0.1,0-0.1-0.1-0.1c0,0-0.1-0.1-0.1-0.1
				c0-0.1-0.1-0.2-0.1-0.3c-0.1-0.2-0.2-0.3-0.3-0.5c-0.1-0.2-0.1-0.3-0.2-0.5c0-0.5-0.1-0.9-0.1-1.4c-0.1-0.1-0.1-0.2-0.1-0.4
				c-0.4-0.5-0.6-1.1-0.8-1.8c-0.2-0.6-0.4-1.4-0.6-2c-0.2-1.2-0.6-2.3-0.8-3.5c0-0.3-0.1-0.7-0.1-1c-0.1-0.3-0.2-0.6-0.2-0.9
				c-0.1-0.6-0.2-1.3-0.3-1.9c0.1,0,0.1,0,0.2,0c0.1,0,0.2,0,0.2-0.1c0.1-0.1,0-0.2,0-0.4c-0.1-0.1,0-0.2-0.1-0.3c0-0.1-0.2,0-0.2,0
				c-0.1,0-0.1,0-0.2,0c-0.2-1-0.6-1.9-0.9-2.8c0-0.3-0.1-0.6-0.1-0.9c0-0.1,0.1-0.1,0.1-0.1c0,0,0.1-0.1,0.1-0.2
				c-0.2-0.8-0.3-1.7-0.3-2.7c-0.1-1,0-2,0.1-2.9c0.2,0,0.3-0.1,0.5-0.1c0.1,0.3,0.2,0.6,0.3,0.9c0.1,0.3,0.2,0.7,0.3,0.9
				c0,0.2,0.1,0.3,0.2,0.4c0.2,0.3,0.4,0.6,0.6,0.8c0.1,0.1,0.1,0.2,0.2,0.3c0.2,0.3,0.4,0.5,0.6,0.7c0.1,0.1,0.2,0.2,0.3,0.3
				c0.1,0,0.1,0.1,0.2,0.2c0,0.1,0.1,0.1,0.1,0.2c0.1,0.1,0.2,0.2,0.3,0.3c0.1,0.1,0.2,0.2,0.3,0.4c0.2,0.2,0.4,0.5,0.5,0.7
				c0,0.2,0.1,0.3,0.1,0.4c0.1,0.2,0.2,0.5,0.4,0.7c0.2,0.2,0.3,0.4,0.6,0.5c0.1,0,0.1-0.1,0.3-0.1c0.1,0,0.2,0.1,0.3,0.1
				c0.2,0,0.2-0.1,0.3-0.2c0.1,0.1,0.2,0.1,0.4,0.1c0.1-0.1,0.2-0.2,0.2-0.3c0.1,0,0.2,0,0.3,0c0-0.1,0.1-0.1,0.1-0.2
				c0-0.3-0.2-0.5-0.2-0.7c-0.1-0.1-0.1-0.3-0.1-0.4c-0.1-0.1,0-0.3,0.1-0.3c0.2,0,0.2,0.1,0.4,0.1c0.1-0.1,0.3-0.1,0.2-0.3
				C52.5,27.3,52.4,27.3,52.3,27.2z M42.4,9.4L42.4,9.4C42.4,9.4,42.4,9.3,42.4,9.4C42.4,9.3,42.4,9.4,42.4,9.4z M36.6,9.8
				C36.6,9.8,36.6,9.8,36.6,9.8C36.6,9.8,36.6,9.8,36.6,9.8C36.6,9.7,36.6,9.7,36.6,9.8C36.6,9.8,36.6,9.8,36.6,9.8z M36.6,10.7
				c0,0-0.1,0.1-0.1,0.1c0.1-0.1,0.1-0.2,0.2-0.2c0,0,0,0,0,0C36.7,10.6,36.6,10.6,36.6,10.7z M40.7,7.6C40.6,7.7,40.6,7.7,40.7,7.6
				C40.6,7.6,40.6,7.6,40.7,7.6z M39.1,6.8C39.1,6.8,39.1,6.8,39.1,6.8C39.2,6.8,39.2,6.8,39.1,6.8c0.1,0,0.1,0.1,0.1,0.2
				c0,0,0,0,0,0c0,0,0,0,0,0.1c0,0,0,0,0,0c0,0,0,0.1,0,0.1c0,0,0,0,0,0.1c0,0,0,0,0,0c0-0.1-0.1-0.2-0.1-0.3
				C39,6.8,39.1,6.9,39.1,6.8z M37.4,7.9C37.4,7.9,37.4,7.9,37.4,7.9c0.1-0.1,0.1,0,0.2,0c0,0,0,0,0,0c0,0,0,0,0,0
				C37.5,7.9,37.5,7.9,37.4,7.9z"/>
		</g>
	</g>
</g>
<g id="XMLID_16_">
	
		<image style="overflow:visible;opacity:0.23;" width="35" height="51" id="XMLID_314_" xlink:href="F73CE82E.png"  transform="matrix(1 0 0 1 2.3333 5.1667)">
	</image>
	<g id="XMLID_224_">
		<g id="XMLID_290_">
			<path id="XMLID_292_" class="st4" d="M32.4,28c-0.3-0.3-0.6-0.4-0.9-0.7c-0.1,0-0.2-0.1-0.3-0.1c0,0,0-0.1-0.1-0.1
				c0,0-0.1,0-0.1,0c-0.1,0-0.1-0.1-0.2-0.1c-0.1-0.1-0.2-0.1-0.2-0.2c-0.1,0-0.1-0.1-0.1-0.1c-0.4-0.4-0.9-0.8-1.3-1.3
				c-0.4-0.3-0.7-0.7-1-1.1c-0.3-0.3-0.7-0.7-1-1c-0.3-0.2-0.5-0.4-0.7-0.5c-0.1-0.3-0.4-0.4-0.5-0.7c-0.1-0.1-0.2-0.2-0.3-0.4
				c-0.1,0-0.1-0.1-0.2-0.2c0-0.1-0.1-0.1-0.1-0.2c0-0.1,0.1-0.1,0.1-0.2c-0.3-0.4-0.7-0.8-1-1.2c-0.1-0.3-0.2-0.5-0.3-0.7
				c-0.3-0.3-0.6-0.6-0.8-0.9c0-0.1-0.1-0.2-0.2-0.4c-0.1-0.1-0.2-0.1-0.3-0.2c-0.1-0.1-0.1-0.2-0.2-0.3c-0.1-0.1-0.2-0.1-0.3-0.2
				c0-0.1-0.1-0.2-0.1-0.3c-0.3-0.1-0.5-0.2-0.6-0.5c-0.2-0.1-0.3-0.2-0.5-0.2c-0.2-0.1-0.3-0.2-0.5-0.3c-0.2,0-0.3-0.1-0.5-0.1
				c-0.1-0.1-0.2-0.2-0.4-0.2c-0.1-0.1-0.2-0.3-0.3-0.4c-0.1,0-0.2,0-0.2-0.1c-0.1-0.3-0.2-0.6-0.2-0.9c0.1,0,0.2,0.1,0.3,0.2
				c0.1-0.1,0.1-0.2,0.1-0.2c0,0.1,0.1,0.2,0.1,0.2c0.1,0.1,0.1,0.2,0.2,0.2c0-0.1-0.1-0.2-0.1-0.3c0.1,0,0.1,0.1,0.2,0
				c0,0,0-0.1,0-0.1c0.1,0,0.2,0.1,0.3,0c0,0,0,0,0,0c0.1,0.1,0.2,0.1,0.3,0.2c-0.1-0.1-0.2-0.2-0.4-0.3c0,0,0-0.1,0-0.1
				c0,0,0.1,0,0.1,0c0.1,0.1,0.3,0.2,0.5,0.2c-0.1,0-0.2-0.1-0.2-0.1c0,0,0,0,0.1,0c0,0,0-0.1,0-0.1c0.1,0,0.2,0.1,0.3,0
				c-0.1,0-0.1,0-0.2,0c0,0,0,0,0.1,0c0,0-0.1,0-0.1,0c0,0-0.1,0-0.1-0.1c-0.1-0.1-0.2-0.1-0.3-0.2c0,0,0-0.1-0.1-0.1c0,0,0,0,0,0
				c0.1-0.1,0.2,0,0.3,0.1c0.1,0,0.2,0.1,0.2,0.1c-0.1,0-0.1-0.1-0.2-0.1c0,0,0,0-0.1-0.1c0,0,0,0,0,0c0.1,0.1,0.3,0.1,0.4,0.1
				c0,0-0.1,0-0.1,0c0,0,0.1,0,0.1,0c0.2,0,0.5,0,0.6-0.2c-0.2,0.1-0.4,0.1-0.5,0.1c0.1,0,0.2,0,0.3,0c-0.1,0-0.2,0-0.3-0.1
				c0,0,0,0,0,0c0,0,0,0,0,0c0.1,0,0.2,0,0.3-0.1c-0.1,0-0.3,0-0.4-0.1c0,0,0,0,0,0c0,0,0,0,0-0.1c0.1,0,0.2,0,0.2,0
				c0.2,0,0.3-0.1,0.4-0.3c-0.1,0.1-0.3,0.2-0.5,0.2c0,0,0,0-0.1,0c0.2-0.1,0.3-0.2,0.4-0.4c-0.2,0.1-0.3,0.2-0.5,0.2c0,0,0,0,0,0
				c0,0,0-0.1,0.1-0.1c0,0,0,0,0.1,0c0.1-0.1,0.2-0.2,0.2-0.3c-0.1,0.1-0.1,0.1-0.2,0.2c0,0,0-0.1,0-0.1c-0.1,0-0.1,0.1-0.1,0.2
				c0,0-0.1,0-0.1,0c0,0-0.1,0-0.1-0.1c0.1,0,0.2,0,0.2-0.1c0.1-0.1,0.1-0.2,0.2-0.3c-0.1,0.1-0.1,0.2-0.2,0.2
				c-0.1,0.1-0.2,0.1-0.3,0.1c-0.1,0-0.2-0.1-0.3-0.1c0,0,0-0.1,0-0.1c0.2,0,0.4,0,0.6-0.1c0,0,0,0,0,0c0.1,0,0.2,0,0.2-0.1
				c-0.1,0-0.2,0-0.3,0c0,0-0.1,0-0.1,0c-0.1,0-0.1-0.1-0.2-0.1c0,0-0.1-0.1-0.1-0.1c0.2,0,0.3-0.1,0.5-0.2c-0.2,0-0.3,0.1-0.5,0.1
				c0,0-0.1,0-0.1,0c0,0,0,0,0-0.1c0.1,0.1,0.3,0,0.4,0c0,0,0,0,0,0c0.1,0,0.1,0,0.2,0c-0.2,0-0.4-0.1-0.5-0.2c0,0,0,0,0,0
				c0,0,0.1,0,0.1-0.1c0.2,0,0.3-0.1,0.4-0.3c-0.1,0.1-0.3,0.2-0.4,0.2c0,0-0.1,0-0.1,0c0,0,0,0,0,0c0,0,0,0,0,0
				c0.1,0,0.3-0.1,0.3-0.2c-0.1,0.1-0.2,0.1-0.3,0.1c-0.1,0-0.2,0-0.3-0.1c0,0,0,0-0.1-0.1c0-0.1,0-0.1,0-0.2c0,0-0.1-0.1-0.1-0.1
				c0,0,0,0,0-0.1c0.1,0.1,0.2,0.2,0.3,0.3c0,0,0.1,0,0.1,0c0,0,0.1,0,0.1-0.1c0-0.1,0-0.1,0-0.2c0,0.4-0.2,0-0.3-0.2
				c-0.1-0.2-0.2-0.5-0.4-0.7c-0.1-0.2-0.3-0.4-0.4-0.7c-0.2-0.2-0.4-0.4-0.6-0.6c-0.1-0.1-0.2-0.1-0.3-0.1C18,8.3,18,8.3,17.9,8.2
				c-0.3-0.1-0.6-0.1-0.9-0.1c0,0-0.1,0-0.1,0c-0.1,0-0.2,0-0.3,0c-0.5,0.1-0.7,0.3-1,0.5c-0.2,0.3-0.4,0.6-0.5,0.9
				c0,0.1-0.1,0.3-0.1,0.4c-0.1,0.2-0.1,0.5-0.2,0.7c-0.1,0.4-0.2,0.8-0.1,1.2c0,0,0,0,0,0.1c0,0-0.1,0.1-0.1,0.1
				c-0.1,0-0.2,0-0.2,0c0.1,0.1,0.1,0.1,0.2,0.1c0,0,0.1,0,0.1,0c0,0,0,0.1,0,0.1c0,0.1-0.1,0.1-0.2,0.2c-0.2,0.1-0.3,0.1-0.5,0
				c0.1,0.1,0.2,0.2,0.4,0.2c-0.2,0-0.3,0-0.5,0c0.2,0.1,0.3,0.1,0.5,0.1c0,0,0,0,0,0c0,0,0.1,0,0.1,0C14.2,12.8,14,13,13.8,13
				c0.1,0,0.3,0,0.4,0c0,0,0,0,0,0c0,0,0,0,0,0c-0.1,0.1-0.3,0.2-0.5,0.2c0.2,0,0.4,0,0.6-0.2c0,0,0,0,0.1-0.1c0,0,0,0,0,0
				c0,0,0,0,0,0c-0.1,0.1-0.2,0.2-0.3,0.2c0.1,0,0.3-0.1,0.3-0.2c0,0,0.1-0.1,0.1-0.1c0,0,0.1-0.1,0.1-0.1c0,0.1-0.1,0.1,0,0.2
				c-0.1,0.1-0.1,0.2-0.2,0.3c0,0-0.1,0-0.1,0.1c-0.1,0-0.3,0-0.4,0c0.1,0.1,0.2,0.2,0.4,0.2c0,0,0.1,0,0.1,0c0.1,0,0.2,0,0.3,0
				c0.1,0,0.2-0.1,0.2-0.1c0,0.1,0.1,0.1,0.1,0.1c-0.1,0-0.1,0.1-0.2,0.1c-0.2,0.1-0.4,0.1-0.6,0c0.2,0.1,0.4,0.2,0.6,0.1
				c0,0,0,0,0.1,0c-0.1,0.1-0.2,0.1-0.3,0.1c-0.2,0.1-0.4,0-0.5-0.1c0,0.1,0.1,0.1,0.2,0.2c0,0.1,0.1,0.1,0.1,0.2
				c-0.1,0-0.2,0-0.3,0c0.1,0.1,0.2,0.1,0.4,0.1c0,0,0,0,0,0c-0.1,0-0.3,0-0.4,0.1c0,0,0,0,0,0c0,0,0,0,0,0c-0.1,0-0.2,0-0.4,0
				c0.2,0.1,0.4,0.1,0.6,0.1c0.1,0,0.1,0,0.2,0c0,0,0,0,0,0c0,0,0,0,0,0c0,0,0.1,0,0.1,0c0,0,0.1,0,0.1,0c-0.2,0.1-0.4,0.1-0.6,0
				c0,0,0.1,0.1,0.1,0.1c-0.1,0-0.2,0-0.4,0c0.2,0,0.4,0.1,0.6,0.1c0.1,0,0.1,0,0.2,0c0.1,0.1,0.3-0.1,0.4-0.1
				c-0.2,0.1-0.3,0.2-0.5,0.2c0.2,0,0.4,0,0.6-0.1c0,0,0,0,0,0c0.1,0,0.1-0.1,0.2-0.1c0,0.1,0,0.1,0,0.2c-0.1,0.2-0.2,0.3-0.3,0.5
				c-0.1,0.1-0.3,0.2-0.5,0.2c0.2,0,0.4,0,0.5-0.1c0.1,0,0.2-0.1,0.2-0.2c0.1,0,0.1-0.1,0.1-0.1c0,0.1-0.1,0.2-0.2,0.3
				c0,0-0.1,0-0.1,0c0.2,0,0.3-0.1,0.5-0.2c0.1,0,0.1-0.1,0.1-0.2c0,0,0,0,0,0c0,0,0,0,0,0c0,0,0,0,0,0l0,0c0-0.1,0.1-0.1,0.2-0.1
				c0,0.1,0,0.2,0,0.2c0,0.1-0.1,0.2-0.1,0.2c-0.1,0-0.2,0-0.3,0c-0.3,0.1-0.7,0.2-1,0.3c-0.1,0.1-0.2,0.2-0.4,0.3
				c-0.2,0.1-0.3,0.2-0.5,0.2c-0.1,0.1-0.2,0.3-0.3,0.4c-0.1,0.1-0.2,0.1-0.3,0.2c-0.1,0.2-0.2,0.4-0.4,0.5
				c-0.1,0.2-0.2,0.3-0.2,0.5c-0.2,0.3-0.5,0.6-0.7,0.9c-0.1,0.2-0.2,0.4-0.2,0.7c-0.3,0.5-0.6,0.9-0.9,1.4c0,0.1,0.1,0.1,0.1,0.2
				c-0.3,0.4-0.6,1-0.9,1.4c-0.2,0.5-0.5,0.9-0.8,1.3c-0.3,0.4-0.5,0.9-0.7,1.3c-0.4,1-1.1,1.7-1.5,2.6c-0.1,0.1-0.2,0.1-0.2,0.2
				c0,0,0,0.1,0,0.1c-0.1,0.1-0.2,0.2-0.3,0.2c0,0.1-0.1,0.1-0.1,0.1c-0.1,0.2-0.2,0.4-0.4,0.5c-0.1,0.2-0.3,0.3-0.4,0.5
				c0.1,0.1,0.1,0.3,0.2,0.4c0.1,0.1,0.1,0.3,0.2,0.4c0.1,0.1,0.1,0.1,0.2,0c0,0.1,0.1,0.1,0.1,0.2c0,0,0.1,0,0.2,0
				c0.1,0.1,0.1,0.1,0.2,0.1c0.1,0,0.2,0,0.2-0.1c0-0.1,0.1-0.1,0.2-0.1c0.2,0,0.3-0.2,0.5-0.2c0.1-0.1,0.3-0.2,0.4-0.3
				c0-0.2,0-0.3,0-0.5c0-0.2-0.1-0.3-0.1-0.5c0-0.1,0.1-0.2,0.1-0.4c0.1-0.1,0.2-0.1,0.2-0.3c0.1-0.2,0.2-0.4,0.4-0.5
				c0.1-0.2,0.3-0.4,0.4-0.5c0.1-0.2,0.3-0.4,0.4-0.5c0.1-0.2,0.2-0.3,0.3-0.4c0,0,0.1-0.1,0.1-0.1c0.3-0.3,0.6-0.7,0.8-1.1
				c0.3-0.3,0.5-0.8,0.8-1.1c0.3-0.2,0.6-0.5,0.8-0.7c0.1-0.2,0.3-0.3,0.5-0.5c0.1-0.1,0.2-0.2,0.3-0.3c0.2,0.1,0.6,0.1,0.7,0.3
				c0.1,0,0.1,0,0.1,0c0,0,0-0.1,0.1-0.1c0.1,0.5,0.1,1.1,0.1,1.7c0.1,0.2,0.1,0.4,0.2,0.7c0.1,0,0.2,0.1,0.3,0.1
				c-0.1,0-0.2,0.1-0.3,0.1c0,0.2-0.2,0.4-0.3,0.7c-0.1,0.4-0.4,0.9-0.4,1.3c-0.1,0.5,0.1,1.1,0,1.6c-0.1,0.6-0.3,1.1-0.4,1.7
				c-0.1,1-0.2,2.1-0.5,3.1c-0.1,0.4-0.1,0.8-0.2,1.3c-0.1,0.4-0.4,0.6-0.6,0.9c0.3-0.1,0.8,0,1.1,0c0,0.1,0,0.3,0,0.4
				c0.2,0,0.7-0.2,0.9,0c0.2,0.2,0,0.3,0.3,0.3c0.3,0.1,0.5-0.1,0.8,0c0.3,0.1,0.4,0.3,0.8,0.2c0.3-0.1,0.5-0.3,0.9-0.2
				c0.1,0,0.1,0,0.2,0c0.1,0.2,0.2,0.5,0.3,0.7c0,0,0,0,0,0c0,0.4-0.1,0.8-0.2,1.1c-0.1,0.3-0.2,0.7-0.2,1.1c0,0.2,0,0.4,0,0.6
				c-0.2,0.6-0.4,1.3-0.5,2c-0.1,0.3-0.1,0.6-0.1,1c0,0.7-0.1,1.3-0.2,2c0,0.1-0.2,0.2-0.2,0.3c-0.1,0.6-0.2,1.1-0.4,1.5
				c0,0.3-0.1,0.7-0.2,0.9c0,0.1,0,0.2,0,0.4c-0.1,0.1-0.1,0.2-0.1,0.4c0.1,0.6-0.1,1.1,0,1.7c0.1,0,0.1,0.1,0.1,0.1
				c0.1,0,0.1,0,0.2,0.1c0.5,0,0.9,0,1.3-0.1c0.4-0.1,0.7-0.2,0.9-0.4c0-0.3-0.1-0.5,0-0.8c-0.1-0.2-0.3-0.3-0.4-0.5
				c-0.1-0.2-0.1-0.3-0.1-0.6c0-0.1-0.1-0.1-0.2-0.3c0-0.3,0-0.6,0.1-0.9c0.2-0.4,0.3-0.9,0.5-1.3c0-0.1-0.1-0.1,0-0.2
				c0.3-0.5,0.5-0.9,0.7-1.4c0.1-0.3,0.2-0.5,0.4-0.7c0-0.1,0.1-0.3,0.2-0.4c0.1-0.1,0.1-0.3,0.2-0.4c0.1,0.4,0.3,0.7,0.4,1
				c0.2,0.3,0.3,0.6,0.5,0.9c0.3,0.6,0.7,1.2,1.1,1.8c0,0.1-0.2,0-0.1,0.2c0.3,0.7,0.8,1.3,0.8,2.3c0,0.1-0.1,0.1-0.1,0.2
				c0,0.4-0.1,0.7-0.1,1c-0.1,0.2-0.2,0.3-0.3,0.5c0,0.4,0,0.9,0.1,1.2c0.1,0.1,0.1,0.2,0.2,0.2c0.1,0,0.1,0.1,0.2,0.1
				c0,0,0,0.1,0.1,0.1c0,0,0.1,0,0.1,0c0,0,0.1,0.1,0.1,0.1c0.1,0,0.3,0.1,0.4,0.1c0.1,0,0.1,0,0.2,0c0.4,0,0.8,0,1.1-0.2
				c0.1-0.1,0.2-0.3,0.3-0.5c0-0.8-0.1-1.3-0.1-2c0-0.2-0.1-0.3-0.1-0.5c0-0.2,0-0.3,0-0.5c-0.2-0.4-0.4-0.8-0.5-1.4
				c-0.3-0.4-0.5-0.9-0.6-1.5c0,0-0.2,0-0.2-0.1c-0.1-0.4-0.3-0.9-0.4-1.4c-0.1-0.5-0.2-1-0.3-1.5c-0.2-0.9-0.7-1.7-0.9-2.5
				c0-0.2-0.1-0.5-0.1-0.7c0-0.3-0.1-0.5-0.2-0.7c-0.2-0.4-0.3-0.8-0.5-1.3c0-0.1,0-0.2,0-0.3c0-0.1,0-0.1,0.1-0.2c0,0,0.1,0,0.1,0
				c0.5,0,1.3,0,1.8-0.2c0.4-0.2,0.5-0.2,0.9-0.1c0.5,0.2,1,0.2,1.5,0c0.3-0.1,0.3,0,0.4-0.4c0-0.2,0-0.4-0.1-0.6
				c-0.1-0.6-0.2-1.1-0.2-1.7c0-1.4-0.2-2.9-0.7-4.3c-0.3-0.8-0.4-1.4-0.5-2.2c-0.1-0.6-0.1-1.1-0.3-1.6c-0.2-0.5-0.5-0.9-0.7-1.4
				c-0.1-0.2-0.1-0.3-0.2-0.4c0,0,0,0,0,0c0,0,0.1,0,0.1-0.1c0-0.3-0.1-0.5-0.2-0.7c-0.1-0.2-0.1-0.5-0.2-0.7c0.1-0.2,0.1-0.4,0-0.6
				c0-0.1,0.1-0.2,0.1-0.3c0.1-0.1,0.2-0.2,0.2-0.4c0,0.1,0,0.3,0,0.4c0.3,0.3,0.5,0.6,0.8,0.8c0.1,0.2,0.3,0.4,0.4,0.6
				c0.1,0,0.1,0.2,0.2,0.2c0.2,0,0.2-0.2,0.4-0.2c0.2-0.1,0.4-0.1,0.5-0.2c0.5,0.4,1,0.9,1.5,1.3c0.1,0.1,0.3,0.2,0.4,0.3
				c0.1,0.1,0.3,0.2,0.4,0.3c0.3,0.2,0.5,0.4,0.8,0.6c0.2,0.2,0.6,0.4,0.8,0.6c0.3,0.2,0.5,0.4,0.8,0.6c0.5,0.4,1.1,0.8,1.6,1.3
				c0.3,0.3,0.3,0.9,0.4,1.4c0.1,0.1,0.3,0.1,0.5,0.2c0.3,0,0.4,0.1,0.6,0c0.1,0.1,0.2,0.2,0.3,0.1c0,0,0,0,0,0
				c0.1,0,0.1-0.1,0.2-0.2c0.1,0,0.2,0,0.2-0.1c0.1,0,0-0.2,0.1-0.2c0.1,0,0.2,0,0.2-0.1C32.4,28.7,32.4,28.4,32.4,28z M20.1,12.7
				c0.1,0,0.2,0.1,0.3,0.1c0,0,0,0,0,0C20.3,12.8,20.2,12.8,20.1,12.7C20.1,12.7,20.1,12.7,20.1,12.7C20.1,12.7,20.1,12.7,20.1,12.7
				z M6.9,29.8c-0.1,0-0.1-0.1-0.1-0.2c0-0.1,0-0.2-0.1-0.2C7,29.2,7,29.6,6.9,29.8z M16.1,15.3c0,0.1,0,0.1,0,0.2c0,0,0,0-0.1,0
				C16.1,15.4,16.1,15.4,16.1,15.3C16.1,15.3,16.1,15.3,16.1,15.3C16.1,15.3,16.1,15.3,16.1,15.3z M15.3,14.7
				C15.3,14.7,15.3,14.7,15.3,14.7C15.4,14.7,15.4,14.7,15.3,14.7L15.3,14.7z M15.5,15.2C15.5,15.3,15.5,15.3,15.5,15.2
				c-0.1,0.1-0.2,0.2-0.3,0.3c0.1-0.1,0.2-0.2,0.2-0.3c0.1-0.1,0.1-0.2,0.1-0.3c0,0,0.1,0,0.1,0C15.7,15,15.6,15.1,15.5,15.2z
				 M15.8,15.5c0.1,0,0.1-0.1,0.1-0.2c0,0,0,0,0-0.1c0,0,0.1-0.1,0.1-0.1c0,0.1,0,0.1,0,0.2c0,0,0,0,0,0c0,0,0,0.1,0,0.1
				c0,0-0.1,0-0.1,0C15.8,15.5,15.8,15.5,15.8,15.5z M16.2,15.5C16.2,15.5,16.2,15.5,16.2,15.5c0-0.1,0-0.1,0-0.2c0-0.1,0-0.2,0-0.3
				c0-0.1,0-0.2,0.1-0.2c0.1,0,0.1,0.1,0.1,0.2c0.1,0.1,0.1,0.2,0.2,0.3c0,0,0,0,0,0c0,0,0,0,0,0.1C16.5,15.3,16.4,15.5,16.2,15.5z
				 M31,29c-0.1,0,0-0.1-0.1-0.2c0-0.1-0.1-0.1,0-0.2c0,0,0.1-0.1,0.1-0.1c0,0,0,0,0,0C31,28.7,31,28.8,31,29C31,29,31,29,31,29z"/>
			<path id="XMLID_291_" class="st4" d="M13.8,24.8l0,0.2c0,0,0,0,0,0C13.9,24.9,13.9,24.8,13.8,24.8z"/>
		</g>
	</g>
</g>
<g id="XMLID_10_">
	
		<image style="overflow:visible;opacity:0.23;" width="29" height="50" id="XMLID_197_" xlink:href="F73CE82F.png"  transform="matrix(1 0 0 1 47.3333 5.1667)">
	</image>
	<g id="XMLID_161_">
		<g id="XMLID_185_">
			<path id="XMLID_186_" class="st5" d="M71.3,27.4c-0.1-0.1-0.2-0.2-0.3-0.3c0-0.1-0.1-0.2-0.2-0.2c-0.2-0.1-0.5-0.2-0.8-0.3
				c-0.1,0-0.2,0-0.3,0c-0.1,0,0-0.1-0.1-0.1c0-0.1-0.1-0.1-0.1-0.1c-0.1-0.1-0.1-0.2-0.2-0.2c-0.1-0.2-0.2-0.3-0.3-0.5
				c-0.2-0.3-0.4-0.7-0.6-1.1c-0.4-0.7-0.8-1.4-1.2-2c-0.2-0.5-0.4-1.1-0.6-1.6c-0.1-0.2-0.2-0.3-0.2-0.5c-0.1-0.2-0.2-0.4-0.2-0.6
				c-0.1-0.1-0.1-0.3-0.2-0.4c-0.1-0.4-0.3-0.7-0.3-1.2c0.1-0.1,0.2-0.1,0.3-0.2c0.1-0.1,0.2-0.2,0.2-0.3c0-0.1-0.1-0.2-0.1-0.3
				C66.1,17.2,66,17,66,16.9c-0.1-0.1-0.2-0.2-0.2-0.4c-0.1-0.1-0.2-0.3-0.3-0.4c-0.1-0.1-0.2-0.2-0.3-0.2c-0.2-0.2-0.4-0.3-0.6-0.4
				c0,0-0.1,0-0.1-0.1c0-0.1-0.1-0.3-0.2-0.4C64.1,15,64,15,64,14.9c-0.1-0.2-0.1-0.4,0-0.7c0.2,0.1,0.1,0.4,0.1,0.6
				c0.1,0,0.2-0.2,0.1-0.3c0-0.1-0.1-0.2-0.1-0.3C64,14,64,14,64,13.9c0-0.1,0-0.1,0-0.2c0-0.2-0.2-0.3-0.3-0.4
				c-0.1-0.1-0.3-0.2-0.4-0.3c-0.1-0.1-0.2-0.2-0.2-0.3c0-0.1,0.2-0.3,0.2-0.5c0.1-0.1,0.2-0.3,0.3-0.4c0.1-0.3,0.3-0.7,0.3-1.1
				c0-0.4,0-0.8,0-1.1c0-0.1,0-0.3,0-0.4c-0.1-0.5-0.2-0.9-0.6-1.2c-0.2-0.2-0.4-0.3-0.6-0.4c0,0,0,0,0,0c-0.2-0.1-0.5-0.3-0.8-0.3
				c-0.2,0-0.3,0.1-0.5,0c0,0-0.1,0-0.1-0.1c-0.2-0.1-0.4,0-0.6,0c-0.2,0-0.5,0.1-0.7,0.2c-0.2,0.1-0.4,0.3-0.6,0.5
				c-0.2,0.2-0.3,0.4-0.4,0.6c-0.1,0.2-0.1,0.5-0.3,0.8c-0.2,0.3-0.4,0.5-0.4,1c0,0.2,0.2,0.5,0.2,0.8c0.1,0.3,0.1,0.6-0.1,0.7
				c-0.1,0.1-0.3,0.1-0.4,0.1c-0.3,0.1-0.6,0.4-0.6,0.8c0,0.3,0.1,0.5-0.1,0.7c-0.1,0-0.1,0-0.2,0c0.1,0.1,0.2,0,0.3,0
				c0,0.2-0.1,0.3-0.1,0.5c-0.1,0.2-0.2,0.3-0.2,0.6c0,0.2-0.1,0.4-0.2,0.6c0,0.2-0.1,0.3-0.1,0.5c-0.3,0.1-0.6,0.3-0.8,0.5
				c-0.1,0.1-0.2,0.1-0.2,0.2c0,0-0.1,0.1-0.1,0.1c0,0-0.1,0.1-0.1,0.1c-0.2,0.2-0.3,0.6-0.5,0.9c0,0.2-0.1,0.4-0.2,0.7
				c0,0,0,0.1,0,0.2c0.1,0.1,0.1,0.2,0.2,0.2c0,0.1,0.1,0.1,0.1,0.1c0,0,0.1,0,0.2,0.1c0,0.4-0.2,0.8-0.3,1.1
				c-0.1,0.4-0.2,0.7-0.3,1.1c-0.1,0.4-0.2,0.7-0.4,1.1c-0.1,0.3-0.3,0.7-0.4,1.1c-0.2,0.3-0.5,0.7-0.7,1c-0.1,0.2-0.2,0.3-0.3,0.5
				c-0.1,0.2-0.2,0.4-0.3,0.5c-0.1,0.2-0.2,0.4-0.3,0.6c-0.1,0.1-0.1,0.2-0.2,0.3c-0.1,0.1-0.1,0.1-0.2,0.2
				c-0.1,0.1-0.3,0.3-0.4,0.5c-0.1,0.1-0.1,0.1-0.2,0.2c-0.1,0-0.1,0.2-0.2,0.2c-0.2,0-0.4,0-0.5,0.1c-0.2,0.1-0.4,0.2-0.6,0.3
				c-0.1,0.1-0.1,0.2-0.2,0.2c-0.2,0.1-0.5,0.3-0.4,0.6c0.1,0,0.1,0.1,0.2,0c0.1,0,0.1-0.1,0.2-0.1c0.1-0.1,0.2-0.2,0.3-0.2
				c0.1,0,0.2,0,0.2,0.1c0,0.1,0,0.2-0.1,0.3c-0.1,0.1-0.2,0.1-0.3,0.2c0,0.2-0.3,0.4-0.2,0.6c0,0.1,0.1,0.1,0.2,0.1
				c0.1,0,0.2,0,0.3,0c0.1,0,0.1,0.2,0.2,0.2c0.1,0,0.1,0,0.2,0c0,0,0.1-0.1,0.1-0.1c0,0.1,0.1,0.2,0.2,0.2c0.2,0,0.2-0.1,0.3-0.2
				c0,0.1,0.2,0.1,0.3,0.1c0.1-0.1,0.1-0.1,0.2-0.1c0.1,0,0.1-0.1,0.1-0.2c0.1-0.1,0.2-0.2,0.2-0.4c0.1-0.3,0.2-0.6,0.3-0.9
				c0.2-0.1,0.2-0.2,0.3-0.4c0.1-0.1,0.1-0.2,0.2-0.2c0-0.1,0.1-0.1,0.2-0.2c0.3-0.2,0.5-0.5,0.7-0.7c0.2-0.3,0.5-0.5,0.7-0.7
				c0.2-0.3,0.4-0.5,0.6-0.9c0.3-0.4,0.5-1,0.6-1.5c0.1-0.6,0.4-1.1,0.6-1.6c0.2-0.3,0.3-0.7,0.4-1c0.1,0.3,0.1,0.5,0.1,0.8
				c0,0.3,0.1,0.5,0.1,0.8c0,0.5,0,1.1-0.1,1.6c0,0.3-0.1,0.5-0.2,0.7c0,0.1-0.1,0.2-0.1,0.3c0,0.1-0.1,0.2-0.1,0.3
				c0.1,0.1,0.3,0.1,0.5,0.2c-0.1,0.5-0.3,0.8-0.4,1.3c-0.1,0.5-0.2,1-0.2,1.5c-0.1,0.2-0.1,0.4-0.2,0.7c-0.1,0.2-0.1,0.5-0.2,0.7
				c0,0.4,0.1,0.8,0.2,1.2c0,0.4,0.1,0.8,0.1,1.3c0.1,0.8,0.2,1.7,0.2,2.5c0.1,0.8,0.2,1.7,0.2,2.6c0,0.9,0,1.8-0.1,2.7
				c0,0.5-0.1,1-0.1,1.5c0.1,0.1,0.2,0.3,0.3,0.3c0.1,0.1,0.2,0.1,0.3,0.2c0.1,0.8,0.2,1.6,0.2,2.3c0,0.3,0.1,0.5,0.1,0.8
				c0,0.3,0,0.6,0,0.9c0,0.3,0.1,0.6,0.1,0.8c0,0.3-0.1,0.5-0.1,0.8c0,0.1,0,0.2,0,0.4c-0.1,0.1-0.2,0.1-0.3,0.2
				c0,0.1-0.1,0.2-0.1,0.2c-0.1,0.4-0.3,0.7-0.5,1c-0.1,0.1-0.2,0.3-0.3,0.4c-0.1,0.2-0.2,0.3-0.2,0.5c0,0.2,0.1,0.2,0.1,0.4
				c0.1,0.1,0.2,0.2,0.3,0.3c0.2,0,0.3,0.1,0.5,0.1c0.3,0,0.6,0,0.9-0.1c0.3-0.1,0.6-0.1,0.8-0.2c0.2-0.1,0.3-0.3,0.5-0.4
				c0-0.2,0-0.4,0-0.7c0.1-0.2,0.1-0.5,0.1-0.8c0-0.1-0.1-0.1-0.1-0.2c0-0.4-0.1-0.7-0.1-1.1c0-0.1,0.1-0.2,0.1-0.3
				c0-0.1,0-0.2,0-0.4c0-0.1-0.1-0.2-0.1-0.3c0.1-0.8,0.2-1.6,0.4-2.3c0.2-0.7,0.4-1.4,0.4-2.3c0.2,0,0.3-0.1,0.4-0.2
				c0-0.1,0.1-0.2,0.1-0.3c0-0.7,0-1.4,0-2c0-0.6-0.1-1.2-0.1-1.8c0-0.6,0-1.2,0-1.8c0-0.6,0-1.2,0-1.8c0-0.3,0-0.6,0-0.9
				c0-0.3,0-0.6,0-0.9c0-0.2,0-0.3,0-0.5c0-0.2,0.1-0.3,0.2-0.3c0,0.9,0,1.8,0.1,2.7c0.1,1.3,0.1,2.7,0.2,3.9
				c0.1,0.4,0.3,0.7,0.4,1.1c0.3,0.4,0.5,0.8,0.8,1.2c0.1,0.2,0.3,0.4,0.4,0.6c0.2,0.2,0.2,0.4,0.5,0.5c0.1,0,0.2,0,0.4,0
				c0.2,0.5,0.5,1,0.8,1.4c0.3,0.4,0.6,0.8,0.9,1.3c0.2,0.2,0.3,0.5,0.4,0.7c0.1,0.2,0.2,0.5,0.3,0.8c0.1,0.1,0.1,0.3,0.2,0.4
				c0.1,0.1,0.1,0.2,0.2,0.4c0.1,0.2,0.2,0.5,0.3,0.8c0,0.1-0.2,0.1-0.1,0.2c0,0.2,0.1,0.5,0.1,0.7c0,0.1,0,0.2,0,0.4
				c0,0.1,0.1,0.2,0,0.4c-0.1,0.1-0.2,0.2-0.2,0.4c0,0.1-0.1,0.1-0.1,0.2c-0.1,0-0.1,0.1-0.1,0.2c0.1,0.2,0.2,0.4,0.4,0.5
				c0.3,0,0.5-0.1,0.7-0.2c0.7-0.2,1.3-0.4,1.9-0.8c0.1-0.2,0.1-0.4,0.2-0.6c-0.1-0.4-0.1-0.8-0.2-1.1c-0.1-0.4-0.1-0.8-0.2-1.2
				c-0.1-0.1-0.1-0.2-0.2-0.3c-0.1-0.1-0.2-0.2-0.2-0.2c-0.1,0-0.2-0.1-0.3-0.2c-0.1-0.1-0.2-0.1-0.3-0.2c-0.2,0-0.4-0.1-0.6-0.1
				c-0.2-0.4-0.3-0.8-0.4-1.2c-0.2-0.4-0.3-0.8-0.4-1.2c-0.3-0.8-0.5-1.7-0.8-2.5c0.2-0.2,0.4-0.3,0.5-0.6c0-0.1,0-0.1,0-0.2
				c-0.1-0.2-0.2-0.4-0.4-0.5c-0.1-0.2-0.3-0.3-0.4-0.5c-0.1-0.2-0.3-0.4-0.4-0.5c0-0.1-0.1-0.2-0.2-0.3c-0.1-0.1-0.2-0.2-0.2-0.2
				c0-0.1-0.1-0.3-0.1-0.4c0.1-1.3,0-2.6,0.1-3.9c0-0.6,0.1-1.2,0.2-1.8c0.1-0.6,0.1-1.2,0.3-1.7c0-0.1,0-0.3,0-0.4
				c0-0.1-0.1-0.3-0.1-0.4c0-0.7-0.1-1.3-0.2-1.9c-0.1-0.6-0.4-1-0.5-1.6c0.2,0,0.4-0.1,0.4-0.2c0-0.1,0-0.2-0.1-0.3
				c0-0.1-0.1-0.2-0.1-0.3c0-0.2-0.1-0.3-0.1-0.5c0-0.2,0-0.3-0.1-0.5c-0.1-0.3-0.1-0.7-0.2-1c0-0.3,0-0.6,0-0.8
				c0-0.2,0-0.4,0.1-0.5c0.1-0.4,0.1-0.9,0.2-1.3c0.1,0.3,0.3,0.6,0.4,0.9c0.1,0.3,0.3,0.6,0.4,0.9c0.2,0.3,0.3,0.7,0.4,1
				c0.1,0.4,0.2,0.7,0.3,1c0.1,0.2,0.1,0.3,0.2,0.4c0.1,0.3,0.3,0.6,0.5,0.9c0.1,0.1,0.2,0.2,0.3,0.4c0.2,0.2,0.4,0.5,0.7,0.7
				c0.2,0.3,0.4,0.5,0.6,0.7c0.1,0.1,0.1,0.2,0.2,0.3c0,0,0.1,0.1,0.1,0.2c0,0.1,0.1,0.1,0.1,0.2c0,0.1,0,0.3,0.1,0.4
				c0.1,0.2,0.2,0.4,0.3,0.6c0.1,0.1,0.1,0.2,0.2,0.3c0,0.1,0.1,0.2,0.2,0.2c0.1,0,0.2,0,0.3-0.1c0.1,0,0.1,0.2,0.3,0.2
				c0.1,0,0.1-0.1,0.2-0.2c0.1,0.1,0.2,0.1,0.2,0.1c0,0,0.1,0,0.1,0c0.1,0,0.1-0.1,0.1-0.1c0-0.1,0-0.1,0.1-0.2
				c0.1,0.1,0.4,0.1,0.4-0.1c0-0.3-0.2-0.3-0.2-0.6c-0.1,0-0.1-0.2-0.2-0.2c-0.1-0.1-0.1-0.2-0.1-0.3c0.4-0.2,0.4,0.3,0.7,0.2
				C71.4,27.8,71.4,27.5,71.3,27.4z M57.1,15.5c0-0.1,0-0.2,0.1-0.2C57.2,15.4,57.2,15.4,57.1,15.5C57.1,15.5,57.1,15.5,57.1,15.5z
				 M59.6,13.5c0,0-0.1,0.1-0.1,0.1c0-0.1,0-0.2-0.1-0.3c0-0.1-0.1-0.2-0.1-0.2c0-0.2,0.2-0.4,0-0.5c0,0-0.1-0.1-0.2-0.1
				c-0.1-0.1-0.3-0.4,0-0.4c0-0.1,0-0.1,0-0.1c0.2-0.1,0.3,0.1,0.4,0.2c0,0,0,0,0,0c0.1,0.1,0.1,0.3,0.2,0.4
				C59.7,12.8,59.6,13.2,59.6,13.5z M62.2,13.1c0.1-0.1,0.2-0.2,0.3-0.3c0,0,0,0,0,0c0,0.6-0.5,0.9-0.6,1.3c0,0,0-0.1,0-0.1
				C62,13.7,62.1,13.4,62.2,13.1z"/>
		</g>
	</g>
</g>
</svg>
